<?xml version="1.0" encoding="UTF-8"?>
<svg width="73px" height="68px" viewBox="0 0 73 68" version="1.1" xmlns="http://www.w3.org/2000/svg" xmlns:xlink="http://www.w3.org/1999/xlink">
    <title>DNV logo</title>
    <defs>
        <polygon id="path-1" points="0 0 40.2441185 0 40.2441185 5.45600137 0 5.45600137"></polygon>
    </defs>
    <g id="Gapstars" stroke="none" stroke-width="1" fill="none" fill-rule="evenodd">
        <g id="Gapstars-2022---Homepage-nieuw-002" transform="translate(-190.000000, -5265.000000)">
            <g id="DNV-logo" transform="translate(190.000000, 5265.000000)">
                <g id="Group-10">
                    <path d="M66.7618747,56.835711 L65.8915248,56.2546771 C64.0958304,58.9157048 61.9384864,61.3092535 59.5067671,63.3922393 L60.1906134,64.1839055 C62.6928694,62.0392859 64.9129789,59.5751275 66.7618747,56.835711 L66.7618747,56.835711 Z M63.9386174,54.9495947 L63.0682675,54.3685607 C61.4417414,56.7746756 59.4894318,58.9396403 57.2884508,60.8227648 L57.9722971,61.614431 C60.2438147,59.6696727 62.2600855,57.4346966 63.9386174,54.9495947 L63.9386174,54.9495947 Z M15.8075507,60.884997 C13.6251005,59.0288 11.682953,56.8961481 10.0600134,54.5241414 L9.19922782,55.1177415 C10.8753687,57.5675386 12.8814774,59.7702017 15.1362575,61.6868358 L15.8075507,60.884997 Z M7.26485125,56.4515465 L6.40406564,57.0451466 C8.25475471,59.747463 10.4682888,62.1757182 12.9573939,64.2892216 L13.6286871,63.4873828 C11.2113142,61.4349148 9.06174122,59.0754742 7.26485125,56.4515465 L7.26485125,56.4515465 Z" id="Fill-1" fill="#FEFEFE"></path>
                    <path d="M9.1004168,53.0200952 L8.76028693,52.451029 L4.91305345,54.7530245 L5.25318332,55.3220907 L9.1004168,53.0200952 Z M8.35559814,51.8155419 L8.08241826,51.2374999 L5.41338509,52.5012936 C5.21791502,52.5934452 5.01766281,52.7143194 4.84909229,52.8345952 L4.82398605,52.780142 C4.97163469,52.6311436 5.09895923,52.4384629 5.26334537,52.1416629 L7.02138043,48.9917528 L6.74820056,48.4137108 L2.69653049,50.3321401 L2.96971037,50.9101821 L5.66026318,49.6362158 C5.84437566,49.5488513 6.00935957,49.4513142 6.16717027,49.3370222 L6.19227651,49.3914754 C6.03625912,49.5644093 5.93882297,49.7361465 5.78280558,50.0084126 L4.03015042,53.1553307 L4.3033303,53.7339711 L8.35559814,51.8155419 Z M6.53300415,47.7489027 L6.32557873,47.1182026 L4.6225383,47.6812849 L4.0343348,45.8968944 L3.46167326,46.0865831 L4.04987676,47.8703753 L2.93145323,48.2401785 L3.13887865,48.8702802 L6.53300415,47.7489027 Z M2.84955904,48.9660222 L1.99714218,46.381588 L1.42448064,46.5700799 L2.27629974,49.1557109 L2.84955904,48.9660222 Z M5.259161,43.0180537 L5.23166368,42.8768343 C5.00331638,41.714168 4.23339147,41.109797 3.08926393,41.335389 L2.1155002,41.5274713 C0.971372655,41.7524648 0.487778515,42.602773 0.715528042,43.7660377 L0.743623128,43.9066586 C0.971970423,45.0699233 1.74189533,45.673696 2.88542511,45.448104 L3.85978661,45.2572185 C5.00391415,45.0316265 5.48750829,44.18072 5.259161,43.0180537 L5.259161,43.0180537 Z M4.63090705,43.1353376 C4.79170659,43.9515377 4.49342046,44.4493958 3.69540046,44.6067716 L2.79217334,44.7844926 C1.99415334,44.9418684 1.52968777,44.5942055 1.369486,43.777407 L1.34437975,43.6481554 C1.18358022,42.8319553 1.48186635,42.3340972 2.27988634,42.1767213 L3.18311347,41.9990003 C3.98113347,41.8416245 4.44559904,42.1898858 4.6058008,43.0060859 L4.63090705,43.1353376 Z M4.73491865,40.4300292 L4.69008606,39.7688114 L2.8949894,39.8908823 L2.82684387,38.8939693 L4.56395706,37.9174015 L4.51195126,37.1592449 L3.22615275,37.8952611 C2.86808985,38.0987128 2.71267022,38.1872741 2.61224523,38.3745692 L2.55246845,38.3781596 C2.45981445,37.9892079 2.15495287,37.5541804 1.59424669,37.5930756 L1.19434004,37.620003 C0.430990575,37.6720627 0.0914584715,38.2225789 0.149441947,39.0710919 L0.263017827,40.735805 L0.870349899,40.6945163 L0.756774019,39.0232209 C0.725092326,38.5630612 0.881707487,38.3069515 1.27563646,38.2794257 L1.60381097,38.2572854 C1.99714218,38.2303579 2.18663457,38.4631306 2.21831626,38.9232903 L2.28705956,39.9321711 L1.12978112,40.0117565 L1.1746137,40.6735728 L4.73491865,40.4300292 Z M4.71758338,32.6521927 L4.75464498,32.0137136 L0.280353092,31.75162 L0.242693722,32.3906975 L3.03845366,33.9387252 C3.31103578,34.093109 3.67567413,34.300151 3.87054643,34.3474236 L3.86695982,34.4072623 C3.62546163,34.4467559 3.2715831,34.5640397 2.96492823,34.6902994 L0.0370616028,35.9098125 L0,36.5482916 L4.47429189,36.8097868 L4.51195126,36.1713077 L2.10772922,36.0312851 C1.7610239,36.0103415 1.33601101,36.0037593 1.07717755,36.0300883 L1.08076416,35.970848 C1.38921234,35.922977 1.7406998,35.8415964 2.09099172,35.700377 L4.59922536,34.6657656 L4.62911375,34.1577349 L2.33189214,32.9023186 C1.94872299,32.6940798 1.5996266,32.5241379 1.3174802,32.4295927 L1.32106681,32.369754 C1.62174401,32.4475443 2.03838816,32.4954153 2.40242874,32.5169572 L4.71758338,32.6521927 Z M2.59132336,29.6040085 C2.26912652,29.3939746 1.9373654,29.1707762 1.67912972,29.0911907 L1.69168284,29.0331471 C1.96964486,29.0493036 2.37612696,28.9763003 2.78021798,28.9158632 L3.70914912,28.7710535 L3.41923175,30.1407618 L2.59132336,29.6040085 Z M4.82697489,31.8222297 L4.97103692,31.1436587 L3.97216695,30.4968021 L4.36011824,28.6711229 L5.53413418,28.4934019 L5.68835827,27.7669599 L0.928333374,28.6011116 L0.817746334,29.1223068 L4.82697489,31.8222297 Z M6.04343233,26.8358694 L6.24488008,26.204571 L2.84537467,25.1173015 L2.64332916,25.7497967 L6.04343233,26.8358694 Z M1.93497433,26.968113 L2.97269921,23.7134852 L2.39286445,23.5285835 L1.35454181,26.782613 L1.93497433,26.968113 Z M6.8456367,24.5781546 L7.10805676,23.9689965 L2.99302331,22.1899914 L2.73060325,22.7991496 L6.8456367,24.5781546 Z M8.28326823,21.643664 L8.34902269,21.5156091 C8.89657798,20.4654396 8.67241506,19.5122089 7.63887456,18.9724636 L6.75836261,18.5129023 C5.7248221,17.9737554 4.81621507,18.3351813 4.26865977,19.3865476 L4.20230755,19.5134056 C3.65535002,20.5647719 3.87891517,21.5174043 4.91305345,22.0571495 L5.79296763,22.5161125 C6.82650814,23.0558577 7.73571294,22.6944318 8.28326823,21.643664 L8.28326823,21.643664 Z M7.71897544,21.3426752 C7.33461075,22.0804866 6.79123984,22.2821431 6.07033188,21.9063559 L5.25378109,21.4803043 C4.53287313,21.1039187 4.38701779,20.5420332 4.77138248,19.8042218 L4.8323548,19.6869379 C5.21671948,18.9497249 5.7600904,18.7474701 6.48099835,19.1238556 L7.29754915,19.5499072 C8.01905487,19.9256944 8.16431244,20.4881783 7.77994776,21.2259897 L7.71897544,21.3426752 Z M9.49075917,19.3404717 L9.8649618,18.8222685 L7.47030404,17.0923311 C7.29575585,16.9660714 7.0925148,16.8487876 6.90720679,16.7584311 L6.94187732,16.7105601 C7.14392283,16.7674069 7.37406343,16.7859569 7.7124,16.7871537 L11.3169398,16.8080972 L11.6911424,16.2892956 L8.05671424,13.6635727 L7.68251161,14.1817759 L10.0962979,15.9260745 C10.2612818,16.0451536 10.4268635,16.1420923 10.6026073,16.2258665 L10.5679367,16.2737375 C10.340785,16.220481 10.1429238,16.2186859 9.8296935,16.2133004 L6.22993588,16.1959472 L5.85573325,16.7147488 L9.49075917,19.3404717 Z M13.8729948,14.0363679 L14.0176546,13.8933533 C14.6943278,13.2255532 14.7588867,12.4482483 14.1712809,11.8516563 L14.0786269,11.7577095 C13.592044,11.2634417 12.9291195,11.2460885 12.307441,11.8594353 L11.9631267,12.1999176 C11.7329861,12.4267064 11.419158,12.5769016 11.0616929,12.2142789 L10.9905585,12.1424725 C10.755038,11.903716 10.7454738,11.5093788 11.0987545,11.1605191 L11.2350456,11.0264804 C11.584142,10.6818094 11.9147075,10.6411191 12.217178,10.9486901 L12.6888168,10.4825465 C12.0844736,9.8691996 11.4335045,9.97451575 10.811826,10.5878626 L10.6671662,10.7302787 C10.0329345,11.3573885 10.0646162,12.1640144 10.518322,12.6247725 L10.6318979,12.7402612 C11.0814192,13.1962323 11.7389638,13.3362549 12.4449276,12.6385354 L12.7689177,12.3189967 C12.981723,12.1089628 13.3212551,11.9503902 13.661385,12.2956596 L13.7199663,12.3554983 C14.0517274,12.6923903 13.9901573,13.0639887 13.5854685,13.4637113 L13.4491775,13.5983485 C13.048673,13.993284 12.6643083,14.0285888 12.3116254,13.6701549 L11.838791,14.1362985 C12.4981289,14.8058938 13.208277,14.6922002 13.8729948,14.0363679 L13.8729948,14.0363679 Z M15.5108786,12.3949919 L17.667027,10.6393239 L17.2862489,10.1707867 L15.6447785,11.5081821 L14.7804063,10.4442497 L16.1439146,9.33424147 L15.7637343,8.86630271 L14.400226,9.97631091 L13.769581,9.20020275 L13.2560985,9.61907377 L15.5108786,12.3949919 Z M13.0630195,9.38211245 L15.172542,7.66474127 L14.7917639,7.19620411 L12.6828392,8.91417368 L13.0630195,9.38211245 Z M19.576895,9.47067375 L19.6982419,9.3934818 C20.6385306,8.79928334 20.918286,7.94418808 20.356982,7.05318958 L19.7914937,7.41042672 C20.1489588,7.97769776 19.9887571,8.45341556 19.3521344,8.85613012 L19.2409496,8.92614142 C18.5379746,9.3701447 17.9665086,9.27141082 17.5319314,8.58266719 L17.0411641,7.8029687 C16.6071847,7.11482346 16.7637998,6.55592984 17.4667748,6.11192656 L17.5779596,6.04191526 C18.2145823,5.6392007 18.7131206,5.70023619 19.0705857,6.26690884 L19.6360741,5.90907331 C19.0741723,5.0186732 18.1823028,4.90378286 17.2420141,5.49798132 L17.1206672,5.57457488 C16.1194062,6.20707012 15.8342709,7.14294766 16.4565472,8.13028649 L16.9861695,8.97042207 C17.6084457,9.95776091 18.575634,10.1025706 19.576895,9.47067375 L19.576895,9.47067375 Z M23.1144848,7.54326867 L23.3553852,7.43675576 C24.3064338,7.01429441 24.6537369,6.20647173 24.213182,5.21135387 L23.0553058,2.59580355 L22.4437894,2.86747132 L23.5873191,5.44951196 C23.8826164,6.11731204 23.7032861,6.58285726 23.0905741,6.85452504 L22.8610313,6.95625086 C22.2489171,7.22791863 21.7838537,7.04840248 21.4885564,6.38120079 L20.3450267,3.79856176 L19.7335102,4.07022953 L20.8913864,6.68518147 C21.3319413,7.68029933 22.1634363,7.96573001 23.1144848,7.54326867 L23.1144848,7.54326867 Z M25.4015444,6.46856531 L26.0363738,6.27648303 L25.5151202,4.55252959 L26.4703532,4.2629102 L27.8099508,5.73913135 L28.5368364,5.51892487 L27.5325865,4.42926184 C27.253429,4.12587954 27.1326799,3.99363598 26.9282433,3.93738758 L26.910908,3.87994241 C27.2695687,3.70281981 27.624045,3.30788428 27.4608544,2.76873744 L27.3448874,2.38517126 C27.1231156,1.65214698 26.5110014,1.44450663 25.698635,1.69104214 L24.102595,2.17453898 L24.2795342,2.75736808 L25.8809541,2.27207609 C26.321509,2.13863575 26.6066442,2.23377931 26.7208179,2.61196 L26.8164607,2.92731004 C26.9312321,3.30549073 26.7465219,3.54245205 26.305967,3.67649078 L25.338181,3.96970049 L25.0022355,2.85729874 L24.3674061,3.04997941 L25.4015444,6.46856531 Z M28.98576,5.43215873 L29.6325448,5.28794743 L28.6575855,0.908351725 L28.0108008,1.05256303 L28.98576,5.43215873 Z M31.3822111,4.95045706 L32.0379623,4.85591189 L31.5262731,1.3200421 L30.8699241,1.41578405 L31.3822111,4.95045706 Z M29.4657676,1.31106629 L32.8431556,0.820987198 L32.7558815,0.21781293 L29.3790912,0.707892023 L29.4657676,1.31106629 Z M34.975991,4.58125218 L35.6383177,4.55312798 L35.5671834,2.89679229 L37.0705694,0 L36.3717788,0.0305177457 L35.5259374,1.6653115 C35.4051883,1.90406798 35.3077521,2.14761156 35.2748749,2.35285835 L35.2150981,2.3552519 C35.158908,2.16017769 35.0477232,1.92560991 34.9000745,1.68625505 L33.9239197,0.135235501 L33.1713301,0.167548408 L34.9036611,2.90157939 L34.975991,4.58125218 Z M42.7182794,5.08928289 L43.3519133,5.17485225 L43.9514744,0.727638799 L43.3184383,0.642069434 L41.5639898,3.31506493 C41.3906372,3.57596173 41.1563122,3.92482145 41.0941443,4.11570696 L41.0349653,4.10792793 C41.0134457,3.86318757 40.9237805,3.50116334 40.8215622,3.18461652 L39.8280722,0.171138731 L39.1956338,0.0855693654 L38.5960727,4.53218443 L39.2291088,4.61715541 L39.5507079,2.22839382 C39.5973338,1.88372281 39.6367865,1.4600647 39.6296133,1.19976628 L39.6887923,1.2081437 C39.712703,1.51870664 39.7670998,1.87654217 39.8818713,2.23617286 L40.721735,4.81881188 L41.2256532,4.88702802 L42.6501339,2.68915194 C42.8868499,2.32234061 43.0829178,1.98664541 43.1982869,1.7119857 L43.257466,1.72036312 C43.157041,2.01417122 43.0781356,2.42645998 43.0291187,2.78848421 L42.7182794,5.08928289 Z M45.9181304,3.18701007 C46.1512598,2.88063584 46.3981379,2.56648257 46.4967696,2.31456158 L46.5535575,2.3319148 C46.5164959,2.60777129 46.5589374,3.01886328 46.5888258,3.42636494 L46.6641446,4.3658328 L45.3209604,3.97329081 L45.9181304,3.18701007 Z M43.5408079,5.25264258 L44.2061234,5.4477168 L44.9252381,4.49807636 L46.7149548,5.02166514 L46.8052178,6.20766851 L47.5159637,6.41590724 L47.0407383,1.60188246 L46.5302446,1.45288405 L43.5408079,5.25264258 Z M47.7437132,6.53378952 L48.3307212,6.78750568 L49.5005527,4.07381986 C49.5866313,3.8757537 49.6565701,3.65255529 49.7043915,3.45089881 L49.7587884,3.4748343 C49.7468331,3.6848682 49.7785148,3.91285371 49.8508447,4.2443602 L50.6088142,7.77245096 L51.1958222,8.02556873 L52.9717903,3.90567306 L52.3853801,3.6519569 L51.2053865,6.38838143 C51.1252856,6.57507823 51.0655088,6.7581847 51.0230673,6.94787344 L50.9680726,6.92453634 C50.9710615,6.69116534 50.9304133,6.4972879 50.8682454,6.19031528 L50.107287,2.66820839 L49.5208768,2.41449223 L47.7437132,6.53378952 Z M54.2223205,6.76117664 C54.5277798,6.52840403 54.8499767,6.29084432 55.0119717,6.07422817 L55.062782,6.1053443 C54.9539883,6.3620524 54.8846472,6.76955406 54.8057418,7.17167024 L54.6288026,8.09617842 L53.4386469,7.36076059 L54.2223205,6.76117664 Z M51.3823257,8.12131068 L51.9717248,8.48572847 L52.9173934,7.76167999 L54.5038691,8.74243656 L54.2761196,9.90929154 L54.9061668,10.29944 L55.7257065,5.53208939 L55.2731963,5.2520442 L51.3823257,8.12131068 Z M56.3133122,11.4956159 L56.4017818,11.566824 C56.9027112,11.9665466 57.2906625,12.0545096 57.734804,11.8432789 L57.7814299,11.8797805 L57.4353223,12.314808 L57.953587,12.7282935 L59.4324645,10.8714981 L58.0306991,9.75251411 L57.6547031,10.2246416 L58.5382039,10.9301401 L58.4120749,11.0887127 C57.9942352,11.6134982 57.4921103,11.6194821 56.8985269,11.1455594 L56.7957108,11.062982 C56.1459372,10.5447787 56.0514899,9.97152381 56.558397,9.33424147 L57.1322541,8.61498009 C57.6391612,7.97829615 58.2183981,7.94239292 58.8681717,8.46119459 L58.9709878,8.54317363 C59.5556047,9.00991563 59.699069,9.45391891 59.3559502,9.88475767 L59.8789971,10.3012351 C60.4642117,9.56701408 60.2388533,8.73705108 59.374481,8.04651228 L59.2621007,7.95735259 C58.3361584,7.21834444 57.3588081,7.25664122 56.6319224,8.16918165 L56.0138305,8.94528981 C55.2869449,9.85842864 55.4907837,10.8391852 56.3133122,11.4956159 L56.3133122,11.4956159 Z M58.3624602,13.1489597 L60.3135742,15.1296212 L60.7427715,14.7053647 L59.2573186,13.197429 L60.2322778,12.2346241 L61.4660705,13.4870484 L61.8958656,13.0639887 L60.6620729,11.810966 L61.3734165,11.1090578 L60.9077554,10.636332 L58.3624602,13.1489597 Z M61.1247451,10.4221093 L63.0340154,12.3608838 L63.4638105,11.9366273 L61.5545402,9.99845123 L61.1247451,10.4221093 Z M63.138027,18.7660201 L63.5170118,19.280633 L67.125736,16.6184085 L66.7473489,16.1037955 L63.6078725,16.7015843 C63.3006199,16.7578327 62.8869646,16.8320327 62.7070365,16.9199956 L62.6717682,16.8721247 C62.8319699,16.6866246 63.0298311,16.3700778 63.1852507,16.0768681 L64.6575528,13.2656452 L64.278568,12.7510322 L60.6704416,15.4126584 L61.0494264,15.9278697 L62.9879873,14.4977244 C63.2677426,14.2918792 63.598906,14.0249985 63.7806274,13.8389001 L63.8158957,13.8867711 C63.6096658,14.1207405 63.3908828,14.4085647 63.2121502,14.7406696 L61.9430892,17.1419973 L62.2443642,17.5512941 L64.8129724,17.0468537 C65.2409741,16.9624811 65.6181656,16.8697311 65.8955298,16.761423 L65.9307981,16.8098924 C65.6498473,16.9427343 65.2983598,17.1719166 65.0054536,17.3891312 L63.138027,18.7660201 Z M63.8451863,19.9047508 L65.2134768,22.3264237 L65.7383169,22.0290253 L64.6970054,20.184796 L65.8889544,19.5104137 L66.7539244,21.0422849 L67.2787645,20.744288 L66.4137945,19.2130153 L67.2835466,18.721141 L66.9571654,18.1436974 L63.8451863,19.9047508 Z M67.2225743,17.9935022 L68.5609764,20.3631154 L69.0858165,20.0651186 L67.7480122,17.6961038 L67.2225743,17.9935022 Z M65.4244888,22.7686318 L65.6695736,23.35924 L68.3965903,22.2282882 C68.5962447,22.1463092 68.8024746,22.0344108 68.976425,21.9231108 L68.9991402,21.9787608 C68.8449161,22.1205785 68.7080273,22.3072753 68.5292947,22.5945012 L66.6188289,25.6546532 L66.8633159,26.2458597 L71.0046511,24.5284885 L70.7595663,23.937282 L68.0104323,25.0778079 C67.8221354,25.1555983 67.6523694,25.2453563 67.4891788,25.3524676 L67.4658658,25.2968176 C67.6308497,25.1310644 67.7366546,24.9647128 67.9058229,24.6996272 L69.8103111,21.6424672 L69.5658241,21.051859 L65.4244888,22.7686318 Z M67.2949042,27.8746696 L67.4718435,28.5149438 L70.9113993,27.564705 L70.7356556,26.9250291 L67.2949042,27.8746696 Z M70.6633257,25.5176225 L71.5707372,28.8099487 L72.158343,28.6483842 L71.2509315,25.3548612 L70.6633257,25.5176225 Z M68.1819916,32.6055185 L68.2059023,32.8077734 C68.3182827,33.7526267 68.8927375,34.2798058 69.7236348,34.181072 L69.8545459,34.1649155 C70.5425766,34.0835348 70.9628074,33.5695203 70.8593936,32.7018589 L70.8020078,32.2207556 C70.7637507,31.8994217 70.8378739,31.5589394 71.3423899,31.4985023 L71.4434127,31.4865345 C71.7763693,31.447041 72.0931863,31.680412 72.1517675,32.1740814 L72.1744827,32.3643685 C72.2324662,32.8514557 72.0615046,33.1368863 71.6341006,33.1883476 L71.7124082,33.8471719 C72.5672161,33.7448477 72.8834353,33.1656089 72.7800215,32.2979475 L72.755513,32.0956927 C72.6503058,31.210678 71.993359,30.7409441 71.3513564,30.8175377 L71.1917524,30.8372844 C70.5557275,30.9126812 70.0428428,31.3471103 70.1600052,32.3332524 L70.2138043,32.7856331 C70.2490726,33.0824331 70.1665807,33.4480477 69.6853776,33.5054928 L69.6016901,33.5156654 C69.1330402,33.5713154 68.8771956,33.2942622 68.8096478,32.7299831 L68.7869326,32.5390976 C68.7205804,31.9808023 68.9286036,31.6546813 69.4277397,31.5948426 L69.3488344,30.9366167 C68.4169144,31.0473183 68.0714046,31.6786168 68.1819916,32.6055185 L68.1819916,32.6055185 Z M68.4778867,36.063598 L68.489842,36.7272094 L70.145061,36.6978884 L73,38.2758354 L72.9880446,37.5757224 L71.3764627,36.6883142 C71.1409422,36.5608577 70.9000418,36.4579351 70.6962029,36.4196384 L70.6956052,36.3597996 C70.891673,36.3083383 71.1283891,36.2024238 71.3710828,36.0606061 L72.9450054,35.1235318 L72.9312567,34.3695639 L70.1576142,36.034277 L68.4778867,36.063598 Z M68.2602992,39.8011243 L68.237584,40.0033791 C68.1341702,40.9494292 68.5747251,41.5926955 69.4068178,41.6836503 L69.537729,41.6980116 C70.2269552,41.7740068 70.7517954,41.3677019 70.8462427,40.5000405 L70.8988462,40.017142 C70.9347123,39.6964065 71.0829587,39.3816549 71.5886703,39.4361081 L71.689693,39.4480758 C72.0226497,39.4839791 72.2784943,39.7831726 72.2252929,40.2768421 L72.2037733,40.4671292 C72.150572,40.9554131 71.9198336,41.1953664 71.4918319,41.1480938 L71.419502,41.8081148 C72.2755054,41.9014632 72.7136692,41.4083922 72.8087143,40.5401324 L72.8308317,40.3372792 C72.9276701,39.4510678 72.3932657,38.8455 71.7506653,38.7748903 L71.5904636,38.7569387 C70.9550364,38.6881241 70.3560731,38.9950967 70.2484749,39.9818372 L70.1994579,40.4348163 C70.1665807,40.7322147 70.0033901,41.0691067 69.5215892,41.0164486 L69.4384995,41.0074728 C68.968654,40.9566099 68.7815527,40.6286937 68.8437206,40.0632178 L68.8646424,39.8729307 C68.9262125,39.3134387 69.2017835,39.0429677 69.7015173,39.097421 L69.7732495,38.4379983 C68.8407317,38.3356741 68.361322,38.8724274 68.2602992,39.8011243 L68.2602992,39.8011243 Z M67.8191466,43.0641295 L67.6810622,43.7133796 L71.1726239,44.4559781 L71.3101105,43.8073264 L67.8191466,43.0641295 Z M71.8941296,42.5243843 L71.1845792,45.8657782 L71.7799559,45.9926363 L72.4901041,42.6512424 L71.8941296,42.5243843 Z M67.2596359,45.3930524 L66.4149901,48.0433092 L66.9888471,48.2264156 L67.632643,46.2086541 L68.9375701,46.6257299 L68.4031657,48.3018124 L68.9770228,48.4855173 L69.512025,46.8094348 L70.4630735,47.1134155 L70.665119,46.4815186 L67.2596359,45.3930524 Z M70.9556342,46.5742686 L70.1283235,49.1676786 L70.7027784,49.3507851 L71.5294912,46.7579735 L70.9556342,46.5742686 Z M64.4555072,52.2050919 L64.1739586,52.7789452 L68.1981314,54.7560164 L68.47968,54.1821631 L66.5016664,51.6701338 C66.3103807,51.4224015 66.0533405,51.0896982 65.892541,50.9706192 L65.9188428,50.9167643 C66.1567544,50.9742095 66.5291637,51.0035305 66.8609248,51.005924 L70.0314852,51.0172934 L70.3130338,50.4434401 L66.288861,48.4663689 L66.0079102,49.0402222 L68.1694385,50.1029578 C68.4814733,50.2555465 68.8700224,50.4266853 69.1192915,50.5026804 L69.0929897,50.5565353 C68.7905192,50.4811385 68.4342496,50.4189062 68.0570582,50.4135207 L65.3437902,50.3943723 L65.1196273,50.8503434 L66.7515333,52.899221 C67.0241154,53.2403017 67.2805578,53.5329131 67.504123,53.729184 L67.4772234,53.7824405 C67.2303453,53.5945469 66.8651092,53.3887017 66.5375324,53.2277356 L64.4555072,52.2050919 Z" id="Fill-3" fill="#FEFEFE"></path>
                    <g id="Group-7" transform="translate(16.583274, 62.543999)">
                        <mask id="mask-2" fill="white">
                            <use xlink:href="#path-1"></use>
                        </mask>
                        <g id="Clip-6"></g>
                        <path d="M0.0221174081,4.72429354 L0.685041885,4.7213016 L0.662924477,0.233996208 L0,0.236988144 L0.0221174081,4.72429354 Z M2.98047019,4.76980232 L3.18371124,4.76857419 C4.13475979,4.76378709 4.72356106,4.25336283 4.71939884,3.41562079 L4.71877892,3.28337723 C4.71579008,2.58924811 4.25371558,2.11293192 3.38097461,2.11771902 L2.89618493,2.12011257 C2.57339033,2.12130934 2.24402027,2.00941094 2.2416292,1.50078185 L2.24103144,1.39905603 C2.23923813,1.06336083 2.5070381,0.77493821 3.00318537,0.772544661 L3.19506883,0.771347887 C3.68523841,0.768954338 3.94945177,0.971209202 3.95124508,1.40264635 L4.61416955,1.39965442 C4.60998518,0.537378503 4.07079863,0.15740265 3.19805766,0.161557123 L2.99421885,0.162788135 C2.10354484,0.166976845 1.56316276,0.767159177 1.5661516,1.41401571 L1.56674937,1.57558024 C1.57033598,2.21585452 1.94274531,2.77594491 2.93503984,2.77115781 L3.38994112,2.76936265 C3.68882502,2.76756749 4.04210578,2.89143363 4.04449685,3.37672563 L4.04509462,3.46049983 C4.04748569,3.9332257 3.74322189,4.15642411 3.17474472,4.15881766 L2.98345903,4.16001443 C2.42155731,4.16240798 2.12147788,3.9188644 2.11908681,3.41621918 L1.45616233,3.41921112 C1.46094447,4.35867897 2.04795244,4.77395967 2.98047019,4.76980232 L2.98047019,4.76980232 Z M7.30830897,4.74886133 L7.45177324,4.74763064 C8.63595123,4.74224515 9.37359668,4.09897894 9.368246,2.93212396 L9.36343463,1.93820287 C9.35745695,0.771347887 8.61383382,0.135262325 7.42965583,0.141204359 L7.28619156,0.141844584 C6.10261134,0.147230068 5.36496589,0.790496277 5.37090751,1.95735126 L5.37572571,2.95127235 C5.38110562,4.11812733 6.12472875,4.75421289 7.30830897,4.74886133 L7.30830897,4.74886133 Z M7.31129781,4.1091763 C6.48040059,4.11274185 6.04821448,3.72618374 6.0440301,2.91237718 L6.03984573,1.99026255 C6.03566135,1.176456 6.46426086,0.785110792 7.29515808,0.781520469 L7.42666699,0.780922082 C8.25816199,0.776733372 8.6903481,1.16329148 8.69453247,1.97709804 L8.69871685,2.89921267 C8.70290122,3.71301922 8.27430172,4.10436443 7.44280672,4.10855314 L7.31129781,4.1091763 Z M9.61987701,5.45612105 L10.2355778,5.45312911 L12.3014633,0.177149427 L11.6857625,0.180141363 L9.61987701,5.45612105 Z M12.8023927,4.66206127 L13.4653172,4.65847095 L13.4431998,0.171763942 L12.7802753,0.174755878 L12.8023927,4.66206127 Z M14.4223434,4.65428224 L17.2007681,4.64051933 L17.1977793,4.03674668 L15.0816813,4.04691926 L15.0751058,2.67601425 L16.8325431,2.66763683 L16.8295543,2.06386418 L15.072117,2.0722416 L15.0673349,1.07233663 L14.4050081,1.07592696 L14.4223434,4.65428224 Z M14.4032148,0.7707495 L17.1224605,0.757584982 L17.1194717,0.153812327 L14.400226,0.166976845 L14.4032148,0.7707495 Z M19.6940575,4.68842422 L19.8375218,4.68779192 C20.9493699,4.68180805 21.6391939,4.10496281 21.6344365,3.05180139 L20.9655096,3.05479333 C20.9684985,3.72498696 20.5817427,4.04392732 19.8285553,4.04811603 L19.6970464,4.04871442 C18.8655514,4.05230474 18.4333653,3.66574663 18.4291809,2.85194008 L18.4249965,1.92982545 C18.4208121,1.1160189 18.8494116,0.724673688 19.6809066,0.721083365 L19.8124156,0.720484978 C20.565603,0.716296267 20.9553476,1.03164631 20.9589342,1.70183994 L21.6278363,1.698848 C21.6224564,0.645686581 20.9272525,0.0754236077 19.8154044,0.0807712948 L19.6719401,0.0814074794 C18.4877621,0.0867929639 17.7501167,0.730059172 17.7554674,1.89691415 L17.7602787,2.89083525 C17.7662564,4.05769023 18.5098795,4.69377579 19.6940575,4.68842422 L19.6940575,4.68842422 Z M23.4964584,4.61000159 L26.6568567,4.59444352 L26.6544657,3.99067086 L24.0481981,4.003237 L24.0476003,3.94339828 L24.2442659,3.76926761 C25.1911301,2.92673848 26.491275,2.43546261 26.4864929,1.42957377 L26.4858951,1.2979286 C26.4817108,0.520025275 25.9598595,0.0508897337 25.1229846,0.0544595965 L24.9795203,0.0556768311 C24.0470026,0.0598655413 23.4761343,0.534984955 23.4802959,1.39067861 L24.1486231,1.38708829 C24.1468298,0.920346293 24.4391382,0.697746265 24.9890846,0.694754329 L25.1205935,0.694155942 C25.574897,0.692360781 25.8151997,0.912567259 25.816993,1.28356731 L25.8181885,1.45111571 C25.8223729,2.30740775 23.4880897,2.95306751 23.4940674,4.11393862 L23.4964584,4.61000159 Z M27.8649454,4.58845965 L29.8118751,0.635513999 L29.809484,0.0915800613 L27.0244839,0.105342966 L27.0274728,0.709115621 L29.2153029,0.698344652 L29.2153029,0.758183369 C29.0491234,0.926330164 28.8590333,1.2327044 28.5159145,1.91666093 L27.1655571,4.59204997 L27.8649454,4.58845965 Z M32.026007,4.62798709 L32.1694713,4.62735481 C33.2095872,4.62256772 33.8515898,3.97930151 33.8456121,2.81244653 L33.84083,1.81852544 C33.8354501,0.651670453 33.186872,0.0155848906 32.1467561,0.0203451638 L32.0032918,0.0209703752 C30.9625781,0.0263558597 30.3211733,0.669023681 30.3265196,1.83587866 L30.3313353,2.82979975 C30.337313,3.99665474 30.9852933,4.63333869 32.026007,4.62798709 L32.026007,4.62798709 Z M32.0289958,3.98830202 C31.3588981,3.99186764 31.0038241,3.60411275 31.0002375,2.7903062 L30.9954553,1.86878996 C30.9918687,1.05498341 31.3427584,0.664236584 32.0128561,0.660646261 L32.144365,0.660030667 C32.8138649,0.657055938 33.1683412,1.04421244 33.1719278,1.85801899 L33.17671,2.78013362 C33.1802966,3.59394017 32.8300047,3.98468699 32.1605047,3.98767893 L32.0289958,3.98830202 Z M36.1984262,4.60764192 L36.3418904,4.60700965 C37.3820064,4.60222255 38.024009,3.95895634 38.0180313,2.79210136 L38.0132492,1.79818027 C38.0072715,0.631325289 37.3592912,-0.00476027315 36.3191752,1.09595899e-16 L36.175711,0.000625211382 C35.1349973,0.00601069592 34.4935924,0.648678517 34.4989388,1.8155335 L34.5037545,2.80945459 C34.5097322,3.97630957 35.1577124,4.61299352 36.1984262,4.60764192 L36.1984262,4.60764192 Z M36.201415,3.96795685 C35.5313173,3.97152248 35.1762432,3.58376759 35.1726566,2.76996104 L35.1678745,1.84844479 C35.1642879,1.03463824 35.5145798,0.64389142 36.1846775,0.640301097 L36.3161864,0.639685503 C36.9856863,0.636710774 37.3407604,1.02386727 37.344347,1.83767383 L37.3491291,2.75978845 C37.3527157,3.57359501 37.0024238,3.96434183 36.3329239,3.96733377 L36.201415,3.96795685 Z M38.5924861,1.55044798 C39.0707004,1.54805443 39.3863218,1.33083989 39.5046798,1.11542051 L39.5644566,1.11542051 L39.5811941,4.53161287 L40.2441185,4.52802254 L40.2225989,0.0407171518 L39.6911833,0.0437090877 C39.5501101,0.62474303 39.0916222,0.908378549 38.5894973,0.910772098 L38.5924861,1.55044798 Z" id="Fill-5" fill="#FEFEFE" mask="url(#mask-2)"></path>
                    </g>
                    <path d="M27.6569222,42.206162 C27.0549701,41.9398797 26.3388443,41.8094313 25.507947,41.81362 L22.5651362,41.8273829 L21.842435,41.8309732 L21.2560248,41.8339652 L21.2942819,49.6967726 L21.8806921,49.6937806 L22.6033934,49.6901903 L25.5462042,49.675829 C26.3771014,49.6722387 27.0920317,49.5340113 27.690995,49.2617451 C28.2899583,48.9900773 28.749044,48.5819773 29.068252,48.0392401 C29.3862644,47.4959046 29.5440751,46.8155384 29.5399718,45.9975431 L29.5369019,45.4524124 C29.5333153,44.6350155 29.3689292,43.9558461 29.0455368,43.4155025 C28.7209489,42.8751588 28.2582766,42.4724443 27.6569222,42.206162 L27.6569222,42.206162 Z M28.2517012,45.9616399 C28.2558856,46.8143416 28.0317226,47.4480336 27.5798102,47.8627159 C27.1273,48.2773982 26.4518224,48.4868337 25.5509863,48.4910224 L22.5974157,48.5053837 L22.5705161,43.0115911 L25.5240868,42.9972298 C26.4249228,42.9930411 27.1027915,43.1911073 27.5588883,43.5908299 C28.0149851,43.9899541 28.2451257,44.6266381 28.2493101,45.5002834 L28.2517012,45.9616399 Z" id="Fill-8" fill="#FEFEFE"></path>
                </g>
                <polygon id="Fill-11" fill="#FEFEFE" points="39.3694647 47.9036456 33.2949485 41.7594061 32.5722472 41.7594061 32.0175187 41.7594061 32.0175187 49.6222135 33.2949485 49.6222135 33.2949485 43.4851547 39.3694647 49.6222135 40.6576543 49.6222135 40.6576543 41.7594061 39.3694647 41.7594061"></polygon>
                <polygon id="Fill-12" fill="#FEFEFE" points="21.2624209 30.7809164 51.8478075 30.7809164 51.8478075 23.4704203 21.2624209 23.4704203"></polygon>
                <polygon id="Fill-13" fill="#FEFEFE" points="21.2624209 34.4358652 51.8478075 34.4358652 51.8478075 33.2163522 21.2624209 33.2163522"></polygon>
                <polygon id="Fill-14" fill="#FEFEFE" points="21.2624209 38.0866253 51.8478075 38.0866253 51.8478075 35.6511896 21.2624209 35.6511896"></polygon>
                <polygon id="Fill-15" fill="#FEFEFE" points="50.4499275 41.7592266 47.4443511 47.9040645 44.4381769 41.7592266 42.9616905 41.7592266 46.8997846 49.622034 47.9153921 49.622034 51.8427265 41.7592266"></polygon>
            </g>
        </g>
    </g>
</svg>