<svg id="Fixico" xmlns="http://www.w3.org/2000/svg" xmlns:xlink="http://www.w3.org/1999/xlink" width="168" height="87.75" viewBox="0 0 168 87.75">
  <defs>
    <clipPath id="clip-path">
      <path id="Clip_6" data-name="Clip 6" d="M0,73.628H167.737V0H0Z" transform="translate(0.2 7.8)" fill="none"/>
    </clipPath>
  </defs>
  <rect id="Rectangle_Copy_6" data-name="Rectangle Copy 6" width="168" height="87.75" fill="none"/>
  <path id="Fill_1" data-name="Fill 1" d="M166.043,20.709H1.693L0,17.254H49.812A39.33,39.33,0,0,1,64.135,4.748a42.189,42.189,0,0,1,9.362-3.5A43.723,43.723,0,0,1,83.859,0h.02A43.729,43.729,0,0,1,94.247,1.239a42.185,42.185,0,0,1,9.368,3.5,39.316,39.316,0,0,1,14.33,12.511h49.792l-1.693,3.455ZM83.876,3.463a40.344,40.344,0,0,0-8.865.981,38.928,38.928,0,0,0-8.088,2.784,36.429,36.429,0,0,0-12.8,10.026h59.51a36.424,36.424,0,0,0-12.8-10.026,38.926,38.926,0,0,0-8.088-2.784A40.348,40.348,0,0,0,83.876,3.463Z" transform="translate(0.2 7.8)" fill="#fff"/>
  <path id="Fill_3" data-name="Fill 3" d="M66.024,19.043H66a43.774,43.774,0,0,1-9.823-1.111,42.317,42.317,0,0,1-8.947-3.15A39.789,39.789,0,0,1,33.158,3.453H1.694L0,0H132L130.3,3.453H98.852A39.8,39.8,0,0,1,84.783,14.778a42.316,42.316,0,0,1-8.941,3.151A43.779,43.779,0,0,1,66.024,19.043ZM37.675,3.453A38.261,38.261,0,0,0,66.007,15.578,38.257,38.257,0,0,0,94.338,3.453H37.675Z" transform="translate(18.07 62.385)" fill="#fff"/>
  <path id="Clip_6-2" data-name="Clip 6" d="M0,73.628H167.737V0H0Z" transform="translate(0.2 7.8)" fill="none"/>
  <g id="Fixico-2" data-name="Fixico" clip-path="url(#clip-path)">
    <path id="Fill_5" data-name="Fill 5" d="M0,21.192H4.686V0H0Z" transform="translate(51.353 34.767)" fill="#fff"/>
    <path id="Fill_7" data-name="Fill 7" d="M0,21.192H4.686V0H0Z" transform="translate(83.628 34.767)" fill="#fff"/>
    <path id="Fill_8" data-name="Fill 8" d="M5.443,21.192l4.6-6.657,4.6,6.657h5.443L12.761,10.6,20.081,0H14.638l-4.6,6.657L5.443,0H0L7.319,10.6,0,21.192Z" transform="translate(59.932 34.767)" fill="#fff"/>
    <path id="Fill_9" data-name="Fill 9" d="M16.113,4.279V0H0V21.192H4.686v-8.2h10.1V8.709H4.686V4.279Z" transform="translate(31.362 34.767)" fill="#fff"/>
    <path id="Fill_10" data-name="Fill 10" d="M11.3,21.93a11.4,11.4,0,0,1-7.988-3.211,10.74,10.74,0,0,1,0-15.507A11.4,11.4,0,0,1,11.3,0a11.4,11.4,0,0,1,7.987,3.212,10.74,10.74,0,0,1,0,15.507A11.4,11.4,0,0,1,11.3,21.93Zm0-17.543A6.341,6.341,0,0,0,6.645,6.316a6.683,6.683,0,0,0-1.794,4.649,6.683,6.683,0,0,0,1.794,4.649A6.341,6.341,0,0,0,11.3,17.544a6.131,6.131,0,0,0,4.579-1.929A6.8,6.8,0,0,0,17.6,10.966a6.8,6.8,0,0,0-1.721-4.649A6.131,6.131,0,0,0,11.3,4.387Z" transform="translate(114.182 34.392)" fill="#fff"/>
    <path id="Fill_11" data-name="Fill 11" d="M11.3,4.387A6.05,6.05,0,0,1,16.275,6.8l3.259-3.332A11.424,11.424,0,0,0,11.3,0,11.135,11.135,0,0,0,0,10.965,11.134,11.134,0,0,0,11.3,21.929a11.415,11.415,0,0,0,8.463-3.706l-3.3-3.371a6.034,6.034,0,0,1-5.167,2.69,6.361,6.361,0,0,1-6.446-6.577A6.361,6.361,0,0,1,11.3,4.387" transform="translate(92.508 34.392)" fill="#fff"/>
  </g>
</svg>
