<?xml version="1.0" encoding="UTF-8"?>
<svg width="46.019px" height="48.0005625px" viewBox="0 0 46.019 48.0005625" version="1.1" xmlns="http://www.w3.org/2000/svg" xmlns:xlink="http://www.w3.org/1999/xlink">
    <title>Group 14</title>
    <defs>
        <polygon id="path-1" points="0 0 46.019 0 46.019 37.0007 0 37.0007"></polygon>
    </defs>
    <g id="Gapstars" stroke="none" stroke-width="1" fill="none" fill-rule="evenodd">
        <g id="Gapstars-2023---Careers-New-001" transform="translate(-984, -2760)">
            <g id="Group-14" transform="translate(984, 2760)">
                <g id="Group-3" transform="translate(0, 11)">
                    <mask id="mask-2" fill="white">
                        <use xlink:href="#path-1"></use>
                    </mask>
                    <g id="Clip-2"></g>
                    <path d="M2.1853,35 L43.8143,35 L38.1573,2 L7.8423,2 L2.1853,35 Z M45.0193,37 C45.0153,37.00075 45.0073,37.00075 44.9993,37 L0.9993,37 C0.7053,37 0.4253,36.87 0.2353,36.645 C0.0453,36.419 -0.0357,36.121 0.0143,35.831 L6.0143,0.831 C6.0963,0.351 6.5123,0 6.9993,0 L38.9993,0 C39.4873,0 39.9033,0.351 39.9853,0.831 L45.9523,35.639 C45.9963,35.75 46.0193,35.872 46.0193,36 C46.0193,36.553 45.5723,37 45.0193,37 L45.0193,37 Z" id="Fill-1" fill="#E87A2E" mask="url(#mask-2)"></path>
                </g>
                <path d="M26.824,12.625 C26.536,12.625 26.251,12.502 26.053,12.263 C25.701,11.838 25.76,11.207 26.185,10.854 C27.339,9.899 28,8.495 28,7 C28,4.243 25.757,2 23,2 C20.243,2 18,4.243 18,7 C18,8.464 18.637,9.85 19.75,10.801 C20.17,11.159 20.219,11.791 19.86,12.21 C19.502,12.631 18.871,12.68 18.451,12.32 C16.893,10.989 16,9.05 16,7 C16,3.141 19.14,0 23,0 C26.859,0 30,3.141 30,7 C30,9.093 29.074,11.059 27.461,12.395 C27.274,12.55 27.049,12.625 26.824,12.625" id="Fill-4" fill="#E87A2E"></path>
                <path d="M30.0408,39.375 C27.3088,39.375 24.9998,37.162 24.9998,34.543 L24.9998,30.208 C24.9998,27.482 27.3948,25 30.0248,25 C31.8728,25 32.8938,25.712 33.8588,26.504 C34.2868,26.854 34.3488,27.484 33.9988,27.911 C33.6478,28.338 33.0198,28.402 32.5918,28.051 C31.7938,27.396 31.2238,27 30.0248,27 C28.4988,27 26.9998,28.589 26.9998,30.208 L26.9998,34.543 C26.9998,36.052 28.4208,37.375 30.0408,37.375 C31.5608,37.375 32.9998,35.877 32.9998,34.293 L32.9998,33 L30.9998,33 C30.4468,33 29.9998,32.553 29.9998,32 C29.9998,31.447 30.4468,31 30.9998,31 L33.9998,31 C34.5528,31 34.9998,31.447 34.9998,32 L34.9998,34.293 C34.9998,37 32.6828,39.375 30.0408,39.375" id="Fill-6" fill="#E87A2E"></path>
                <path d="M12.9998,39 C12.4468,39 11.9998,38.553 11.9998,38 L11.9998,26 C11.9998,25.447 12.4468,25 12.9998,25 C13.5528,25 13.9998,25.447 13.9998,26 L13.9998,38 C13.9998,38.553 13.5528,39 12.9998,39" id="Fill-8" fill="#E87A2E"></path>
                <path d="M12.9998,36.375 C12.7698,36.375 12.5388,36.297 12.3508,36.136 C11.9308,35.777 11.8808,35.146 12.2388,34.726 L20.2388,25.351 C20.5998,24.93 21.2298,24.881 21.6488,25.239 C22.0688,25.598 22.1188,26.229 21.7608,26.649 L13.7608,36.024 C13.5618,36.256 13.2818,36.375 12.9998,36.375" id="Fill-10" fill="#E87A2E"></path>
                <path d="M20.9998,39 C20.7248,39 20.4498,38.887 20.2528,38.664 L15.2528,33.039 C14.8858,32.627 14.9228,31.994 15.3358,31.628 C15.7468,31.259 16.3808,31.297 16.7468,31.711 L21.7468,37.336 C22.1138,37.748 22.0768,38.381 21.6638,38.747 C21.4738,38.917 21.2358,39 20.9998,39" id="Fill-12" fill="#E87A2E"></path>
            </g>
        </g>
    </g>
</svg>