<?xml version="1.0" encoding="UTF-8"?>
<svg width="48px" height="38.0595809px" viewBox="0 0 48 38.0595809" version="1.1" xmlns="http://www.w3.org/2000/svg" xmlns:xlink="http://www.w3.org/1999/xlink">
    <g id="Gapstars" stroke="none" stroke-width="1" fill="none" fill-rule="evenodd">
        <g id="Gapstars-2023---Careers-New-001" transform="translate(-812.0298, -262.9702)" fill="#E87A2E">
            <g id="Group-11" transform="translate(836.0298, 282) rotate(90) translate(-836.0298, -282)translate(817, 258)">
                <path d="M13.0595809,30 C12.5075809,30 12.0595809,29.552 12.0595809,29 L12.0595809,8 C12.0595809,6.034 13.5555809,4 16.0595809,4 C18.5635809,4 20.0595809,6.034 20.0595809,8 L20.0595809,23 C20.0595809,23.552 19.6115809,24 19.0595809,24 C18.5075809,24 18.0595809,23.552 18.0595809,23 L18.0595809,8 C18.0595809,7.006 17.3725809,6 16.0595809,6 C14.7465809,6 14.0595809,7.006 14.0595809,8 L14.0595809,29 C14.0595809,29.552 13.6115809,30 13.0595809,30" id="Fill-1"></path>
                <path d="M25.0595809,24 C24.5075809,24 24.0595809,23.552 24.0595809,23 L24.0595809,4.066 C24.0595809,3.065 23.3585809,2 22.0595809,2 C20.7465809,2 20.0595809,3.006 20.0595809,4 L20.0595809,9 C20.0595809,9.552 19.6115809,10 19.0595809,10 C18.5075809,10 18.0595809,9.552 18.0595809,9 L18.0595809,4 C18.0595809,2.034 19.5555809,0 22.0595809,0 C24.5635809,0 26.0595809,2.068 26.0595809,4.066 L26.0595809,23 C26.0595809,23.552 25.6115809,24 25.0595809,24" id="Fill-3"></path>
                <path d="M31.0595809,25 C30.5075809,25 30.0595809,24.552 30.0595809,24 L30.0595809,7 C30.0595809,6.006 29.3725809,5 28.0595809,5 C26.7465809,5 26.0595809,6.006 26.0595809,7 L26.0595809,9 C26.0595809,9.552 25.6115809,10 25.0595809,10 C24.5075809,10 24.0595809,9.552 24.0595809,9 L24.0595809,7 C24.0595809,5.034 25.5555809,3 28.0595809,3 C30.5635809,3 32.0595809,5.034 32.0595809,7 L32.0595809,24 C32.0595809,24.552 31.6115809,25 31.0595809,25" id="Fill-5"></path>
                <path d="M37.0595809,28 C36.5075809,28 36.0595809,27.552 36.0595809,27 L36.0595809,15 C36.0595809,14.006 35.3725809,13 34.0595809,13 C32.7465809,13 32.0595809,14.006 32.0595809,15 L32.0595809,18 C32.0595809,18.552 31.6115809,19 31.0595809,19 C30.5075809,19 30.0595809,18.552 30.0595809,18 L30.0595809,15 C30.0595809,13.034 31.5555809,11 34.0595809,11 C36.5635809,11 38.0595809,13.034 38.0595809,15 L38.0595809,27 C38.0595809,27.552 37.6115809,28 37.0595809,28" id="Fill-7"></path>
                <path d="M24.0595809,48 C17.9395809,48 13.4115809,45.559 10.2155809,40.537 C5.60058086,33.284 2.30758086,29.568 0.754580859,27.999 C0.149580859,27.387 -0.109419141,26.551 0.0425808588,25.705 C0.195580859,24.856 0.757580859,24.131 1.54658086,23.766 C4.10258086,22.579 6.91058086,22.882 9.24858086,24.598 L13.6925809,28.226 C14.1205809,28.575 14.1835809,29.205 13.8335809,29.633 C13.4835809,30.061 12.8545809,30.124 12.4265809,29.774 L8.02458086,26.179 C6.33358086,24.939 4.26458086,24.71 2.38758086,25.58 C2.18558086,25.674 2.04858086,25.848 2.01058086,26.06 C1.99058086,26.175 1.98358086,26.398 2.17658086,26.593 C4.14158086,28.579 7.42358086,32.424 11.9035809,39.463 C14.7025809,43.862 18.6785809,46 24.0595809,46 C31.2375809,46 36.0595809,41.472 36.0595809,34.733 L36.0595809,27 C36.0595809,26.448 36.5075809,26 37.0595809,26 C37.6115809,26 38.0595809,26.448 38.0595809,27 L38.0595809,34.733 C38.0595809,42.545 32.3025809,48 24.0595809,48" id="Fill-9"></path>
            </g>
        </g>
    </g>
</svg>