<?xml version="1.0" encoding="UTF-8"?>
<svg width="48.0025128px" height="42px" viewBox="0 0 48.0025128 42" version="1.1" xmlns="http://www.w3.org/2000/svg" xmlns:xlink="http://www.w3.org/1999/xlink">
    <title>Group 6</title>
    <defs>
        <polygon id="path-1" points="0 0 48.0025128 0 48.0025128 32 0 32"></polygon>
    </defs>
    <g id="Gapstars" stroke="none" stroke-width="1" fill="none" fill-rule="evenodd">
        <g id="Gapstars-2023---Careers-New-001" transform="translate(-812, -2766)">
            <g id="Group-6" transform="translate(812, 2766)">
                <g id="Group-3">
                    <mask id="mask-2" fill="white">
                        <use xlink:href="#path-1"></use>
                    </mask>
                    <g id="Clip-2"></g>
                    <path d="M2.6855,21.853 L8.9655,29.861 L43.2485,20.553 C45.0095,20.074 46.2515,18.735 45.9585,17.628 C45.6795,16.574 43.9175,16.009 42.1835,16.479 L30.6935,19.599 C30.3555,19.692 29.9855,19.597 29.7315,19.348 L12.1435,2.115 L9.5795,2.811 L21.2965,20.796 C21.4715,21.065 21.5065,21.399 21.3935,21.698 C21.2795,21.997 21.0295,22.224 20.7205,22.307 L11.3065,24.862 C11.0145,24.941 10.7015,24.884 10.4555,24.705 L5.4135,21.018 L2.6855,21.853 Z M8.5875,32 C8.2855,32 7.9935,31.862 7.8005,31.617 L0.2125,21.941 C0.0095,21.682 -0.0525,21.338 0.0455,21.024 C0.1445,20.71 0.3915,20.464 0.7065,20.368 L5.3065,18.959 C5.6075,18.866 5.9365,18.922 6.1895,19.108 L11.2475,22.807 L18.8715,20.737 L7.1535,2.752 C6.9785,2.484 6.9435,2.149 7.0565,1.85 C7.1705,1.551 7.4205,1.325 7.7295,1.241 L12.1725,0.035 C12.5145,-0.06 12.8815,0.038 13.1345,0.286 L30.7225,17.519 L41.6605,14.549 C42.2605,14.386 42.8705,14.303 43.4695,14.303 C45.6685,14.303 47.4465,15.434 47.8925,17.117 C48.4785,19.339 46.6685,21.696 43.7715,22.482 L8.8495,31.965 C8.7625,31.989 8.6745,32 8.5875,32 L8.5875,32 Z" id="Fill-1" fill="#E87A2E" mask="url(#mask-2)"></path>
                </g>
                <path d="M47,42 L1,42 C0.447,42 0,41.552 0,41 C0,40.448 0.447,40 1,40 L47,40 C47.553,40 48,40.448 48,41 C48,41.552 47.553,42 47,42" id="Fill-4" fill="#E87A2E"></path>
            </g>
        </g>
    </g>
</svg>