<?xml version="1.0" encoding="UTF-8"?>
<svg width="48px" height="48px" viewBox="0 0 48 48" version="1.1" xmlns="http://www.w3.org/2000/svg" xmlns:xlink="http://www.w3.org/1999/xlink">
    <title>Group 9</title>
    <g id="Gapstars" stroke="none" stroke-width="1" fill="none" fill-rule="evenodd">
        <g id="Gapstars-2023---Careers-New-001" transform="translate(-299, -2760)" fill="#E87A2E">
            <g id="Group-9" transform="translate(299, 2760)">
                <path d="M24,2 C11.869,2 2,11.869 2,24 C2,36.131 11.869,46 24,46 C36.131,46 46,36.131 46,24 C46,11.869 36.131,2 24,2 M24,48 C10.767,48 0,37.233 0,24 C0,10.767 10.767,0 24,0 C37.233,0 48,10.767 48,24 C48,37.233 37.233,48 24,48" id="Fill-1"></path>
                <path d="M24.498,36 C19.812,36 16,30.617 16,24 C16,17.383 19.812,12 24.498,12 C26.428,12 28.239,12.875 29.739,14.53 C30.11,14.939 30.079,15.571 29.67,15.942 C29.261,16.313 28.628,16.282 28.257,15.873 C27.148,14.647 25.847,14 24.498,14 C20.915,14 18,18.486 18,24 C18,29.514 20.915,34 24.498,34 C25.848,34 27.148,33.352 28.259,32.127 C28.631,31.718 29.263,31.687 29.672,32.058 C30.081,32.429 30.111,33.061 29.741,33.471 C28.24,35.126 26.428,36 24.498,36" id="Fill-3"></path>
                <path d="M23,28 L15,28 C14.447,28 14,27.552 14,27 C14,26.448 14.447,26 15,26 L23,26 C23.553,26 24,26.448 24,27 C24,27.552 23.553,28 23,28" id="Fill-5"></path>
                <path d="M26,23 L15,23 C14.447,23 14,22.552 14,22 C14,21.448 14.447,21 15,21 L26,21 C26.553,21 27,21.448 27,22 C27,22.552 26.553,23 26,23" id="Fill-7"></path>
            </g>
        </g>
    </g>
</svg>