<?xml version="1.0" encoding="UTF-8"?>
<svg width="42px" height="48px" viewBox="0 0 42 48" version="1.1" xmlns="http://www.w3.org/2000/svg" xmlns:xlink="http://www.w3.org/1999/xlink">
    <title>Group 19</title>
    <g id="Gapstars" stroke="none" stroke-width="1" fill="none" fill-rule="evenodd">
        <g id="Gapstars-2023---Careers-New-001" transform="translate(-473, -2760)" fill="#E87A2E">
            <g id="Group-19" transform="translate(473, 2760)">
                <path d="M41,43 L1,43 C0.447,43 0,42.552 0,42 C0,41.448 0.447,41 1,41 L41,41 C41.553,41 42,41.448 42,42 C42,42.552 41.553,43 41,43" id="Fill-1"></path>
                <path d="M41,43 C40.447,43 40,42.552 40,42 L40,4.037 C40,2.914 39.068,2 37.923,2 L4.077,2 C2.932,2 2,2.914 2,4.037 L2,42 C2,42.552 1.553,43 1,43 C0.447,43 0,42.552 0,42 L0,4.037 C0,1.811 1.829,0 4.077,0 L37.923,0 C40.171,0 42,1.811 42,4.037 L42,42 C42,42.552 41.553,43 41,43" id="Fill-3"></path>
                <path d="M40.9336,29 L1.0666,29 C0.5136,29 0.0666,28.552 0.0666,28 C0.0666,27.448 0.5136,27 1.0666,27 L40.9336,27 C41.4866,27 41.9336,27.448 41.9336,28 C41.9336,28.552 41.4866,29 40.9336,29" id="Fill-5"></path>
                <path d="M41,12 L1,12 C0.447,12 0,11.552 0,11 C0,10.448 0.447,10 1,10 L41,10 C41.553,10 42,10.448 42,11 C42,11.552 41.553,12 41,12" id="Fill-7"></path>
                <path d="M30,7 L12,7 C11.447,7 11,6.552 11,6 C11,5.448 11.447,5 12,5 L30,5 C30.553,5 31,5.448 31,6 C31,6.552 30.553,7 30,7" id="Fill-9"></path>
                <path d="M33,34 C32.448,34 32,34.449 32,35 C32,35.551 32.448,36 33,36 C33.552,36 34,35.551 34,35 C34,34.449 33.552,34 33,34 M33,38 C31.346,38 30,36.654 30,35 C30,33.346 31.346,32 33,32 C34.654,32 36,33.346 36,35 C36,36.654 34.654,38 33,38" id="Fill-11"></path>
                <path d="M9,34 C8.448,34 8,34.449 8,35 C8,35.551 8.448,36 9,36 C9.552,36 10,35.551 10,35 C10,34.449 9.552,34 9,34 M9,38 C7.346,38 6,36.654 6,35 C6,33.346 7.346,32 9,32 C10.654,32 12,33.346 12,35 C12,36.654 10.654,38 9,38" id="Fill-13"></path>
                <path d="M13,48 L3,48 C2.447,48 2,47.552 2,47 L2,43 C2,42.448 2.447,42 3,42 C3.553,42 4,42.448 4,43 L4,46 L12,46 L12,43 C12,42.448 12.447,42 13,42 C13.553,42 14,42.448 14,43 L14,47 C14,47.552 13.553,48 13,48" id="Fill-15"></path>
                <path d="M39,48 L29,48 C28.447,48 28,47.552 28,47 L28,43 C28,42.448 28.447,42 29,42 C29.553,42 30,42.448 30,43 L30,46 L38,46 L38,43 C38,42.448 38.447,42 39,42 C39.553,42 40,42.448 40,43 L40,47 C40,47.552 39.553,48 39,48" id="Fill-17"></path>
            </g>
        </g>
    </g>
</svg>