<?xml version="1.0" encoding="UTF-8"?>
<svg width="48.0906827px" height="48.0239195px" viewBox="0 0 48.0906827 48.0239195" version="1.1" xmlns="http://www.w3.org/2000/svg" xmlns:xlink="http://www.w3.org/1999/xlink">
    <title>Group 18</title>
    <defs>
        <polygon id="path-1" points="0 0 24.3894963 0 24.3894963 24.0128334 0 24.0128334"></polygon>
    </defs>
    <g id="Gapstars" stroke="none" stroke-width="1" fill="none" fill-rule="evenodd">
        <g id="Gapstars-2023---Careers-New-001" transform="translate(-1156, -2760)">
            <g id="Group-18" transform="translate(1156, 2760)">
                <path d="M19.0205,25.0122195 C18.9515,25.0122195 18.8805,25.0052195 18.8105,24.9902195 C18.4385,24.9102195 9.6605,22.9942195 5.3845,18.7192195 C3.1045,16.4392195 1.3345,12.7992195 0.5295,8.73421954 C-0.0745,5.68621954 -0.1605,1.87021954 1.4075,0.304219539 C1.7975,-0.084780461 2.4295,-0.084780461 2.8205,0.304219539 L22.7925,20.2382195 C23.1845,20.6282195 23.1845,21.2612195 22.7945,21.6522195 C22.4045,22.0442195 21.7715,22.0422195 21.3805,21.6542195 L2.3615,2.67121954 C2.0455,3.84721954 2.0005,5.86821954 2.4915,8.34521954 C3.2105,11.9782195 4.8215,15.3262195 6.7985,17.3052195 C10.6545,21.1602195 19.1435,23.0162195 19.2285,23.0352195 C19.7685,23.1502195 20.1135,23.6822195 19.9975,24.2212195 C19.8965,24.6912195 19.4825,25.0122195 19.0205,25.0122195" id="Fill-1" fill="#E87A2E"></path>
                <path d="M42.7246,48.0112195 C42.6316,48.0112195 42.5386,48.0092195 42.4466,48.0042195 C40.5896,47.9152195 38.7696,46.9462195 37.4516,45.3452195 L18.2856,24.6922195 C17.9106,24.2872195 17.9346,23.6552195 18.3396,23.2792195 C18.7436,22.9022195 19.3766,22.9262195 19.7526,23.3322195 L38.9556,44.0302195 C39.9546,45.2402195 41.2476,45.9452195 42.5416,46.0072195 C43.5346,46.0532195 44.4316,45.7192195 45.1166,45.0352195 C45.7996,44.3522195 46.1346,43.4622195 46.0866,42.4612195 C46.0246,41.1672195 45.3196,39.8752195 44.1536,38.9152195 L21.4836,21.7422195 C21.0426,21.4092195 20.9556,20.7812195 21.2896,20.3422195 C21.6216,19.9022195 22.2476,19.8142195 22.6906,20.1492195 L45.3926,37.3462195 C47.0256,38.6892195 47.9946,40.5092195 48.0836,42.3652195 C48.1606,43.9212195 47.6076,45.3722195 46.5306,46.4492195 C45.5176,47.4622195 44.1756,48.0112195 42.7246,48.0112195" id="Fill-3" fill="#E87A2E"></path>
                <path d="M30.8672,23.0288195 C30.5752,23.0288195 30.3012,23.0218195 30.0482,23.0108195 C29.4962,22.9868195 29.0682,22.5198195 29.0932,21.9678195 C29.1172,21.4178195 29.5732,20.9928195 30.1352,21.0128195 C32.4712,21.1178195 36.8252,20.8138195 39.8682,17.6648195 C43.1842,14.2308195 46.0722,8.33181954 46.1002,8.27181954 C46.3422,7.77681954 46.9412,7.56881954 47.4372,7.80981954 C47.9332,8.05181954 48.1402,8.64981954 47.8992,9.14681954 C47.7762,9.39981954 44.8422,15.3938195 41.3062,19.0538195 C38.0582,22.4158195 33.6502,23.0288195 30.8672,23.0288195" id="Fill-5" fill="#E87A2E"></path>
                <g id="Group-9" transform="translate(0, 24.0111)">
                    <mask id="mask-2" fill="white">
                        <use xlink:href="#path-1"></use>
                    </mask>
                    <g id="Clip-8"></g>
                    <path d="M5.3926,24.0128334 C3.9356,24.0128334 2.5866,23.4608334 1.5696,22.4428334 C0.4866,21.3608334 -0.0684,19.9028334 0.0066,18.3378334 C0.0976,16.4738334 1.0716,14.6458334 2.6786,13.3228334 L18.4526,0.231833426 C18.8776,-0.124166574 19.5076,-0.0621665741 19.8616,0.362833426 C20.2136,0.786833426 20.1556,1.41783343 19.7306,1.77083343 L3.9526,14.8648334 C2.7766,15.8318334 2.0676,17.1328334 2.0046,18.4338334 C1.9556,19.4428334 2.2936,20.3398334 2.9836,21.0288334 C3.6716,21.7178334 4.5566,22.0528334 5.5776,22.0078334 C6.8776,21.9458334 8.1776,21.2368334 9.1436,20.0628334 L22.6256,4.10983343 C22.9816,3.68783343 23.6136,3.63283343 24.0356,3.99183343 C24.4566,4.34783343 24.5096,4.97883343 24.1536,5.40083343 L10.6796,21.3438334 C9.3646,22.9428334 7.5366,23.9158334 5.6736,24.0058334 C5.5796,24.0108334 5.4866,24.0128334 5.3926,24.0128334" id="Fill-7" fill="#E87A2E" mask="url(#mask-2)"></path>
                </g>
                <path d="M26.0908,19.0122195 C25.5548,19.0122195 25.1108,18.5872195 25.0928,18.0462195 C24.9988,15.3592195 25.3818,10.3182195 28.9838,6.74921954 C32.6008,3.16421954 38.6008,0.224219539 38.8548,0.101219539 C39.3528,-0.139780461 39.9488,0.067219539 40.1918,0.563219539 C40.4328,1.05921954 40.2258,1.65821954 39.7298,1.90021954 C39.6698,1.92821954 33.7708,4.82121954 30.3918,8.16921954 C27.3298,11.2022195 27.0098,15.6172195 27.0908,17.9782195 C27.1108,18.5302195 26.6788,18.9922195 26.1258,19.0112195 C26.1138,19.0122195 26.1028,19.0122195 26.0908,19.0122195" id="Fill-10" fill="#E87A2E"></path>
                <path d="M33.126,12.7915195 C32.87,12.7915195 32.614,12.6935195 32.419,12.4985195 C32.028,12.1075195 32.028,11.4755195 32.419,11.0845195 L41.461,2.04351954 C41.852,1.65251954 42.484,1.65251954 42.875,2.04351954 C43.266,2.43451954 43.266,3.06651954 42.875,3.45751954 L33.833,12.4985195 C33.638,12.6935195 33.382,12.7915195 33.126,12.7915195" id="Fill-12" fill="#E87A2E"></path>
                <path d="M36.209,15.8755195 C35.953,15.8755195 35.697,15.7775195 35.502,15.5825195 C35.111,15.1915195 35.111,14.5595195 35.502,14.1685195 L44.556,5.11351954 C44.946,4.72351954 45.579,4.72351954 45.97,5.11351954 C46.36,5.50451954 46.36,6.13751954 45.97,6.52751954 L36.916,15.5825195 C36.721,15.7775195 36.465,15.8755195 36.209,15.8755195" id="Fill-14" fill="#E87A2E"></path>
                <path d="M46.999,9.70951954 C46.487,9.70951954 46.055,9.32051954 46.005,8.80751954 C45.991,8.72551954 45.718,7.29951954 43.237,4.81851954 C40.673,2.25351954 39.181,1.99451954 39.166,1.99251954 C38.632,1.90851954 38.246,1.41351954 38.314,0.876519539 C38.382,0.339519539 38.864,-0.051480461 39.389,0.00551953901 C39.6,0.025519539 41.543,0.295519539 44.651,3.40451954 C47.706,6.45851954 47.975,8.30351954 47.998,8.64251954 C48.035,9.19351954 47.618,9.67051954 47.067,9.70751954 C47.044,9.70851954 47.021,9.70951954 46.999,9.70951954" id="Fill-16" fill="#E87A2E"></path>
            </g>
        </g>
    </g>
</svg>