<?xml version="1.0" encoding="UTF-8"?>
<svg width="48px" height="47.999px" viewBox="0 0 48 47.999" version="1.1" xmlns="http://www.w3.org/2000/svg" xmlns:xlink="http://www.w3.org/1999/xlink">
    <title>Group 19</title>
    <g id="Gapstars" stroke="none" stroke-width="1" fill="none" fill-rule="evenodd">
        <g id="Gapstars-2023---Careers-New-001" transform="translate(-641, -2760)" fill="#E87A2E">
            <g id="Group-19" transform="translate(641, 2760)">
                <path d="M24,11 C16.832,11 11,16.831 11,23.999 C11,31.167 16.832,36.999 24,36.999 C31.168,36.999 37,31.167 37,23.999 C37,16.831 31.168,11 24,11 M24,38.999 C15.728,38.999 9,32.27 9,23.999 C9,15.729 15.728,9 24,9 C32.271,9 39,15.729 39,23.999 C39,32.27 32.271,38.999 24,38.999" id="Fill-1"></path>
                <path d="M24,11 C23.447,11 23,10.552 23,10 L23,1 C23,0.448 23.447,0 24,0 C24.553,0 25,0.448 25,1 L25,10 C25,10.552 24.553,11 24,11" id="Fill-3"></path>
                <path d="M24,47.999 C23.447,47.999 23,47.551 23,46.999 L23,37.999 C23,37.447 23.447,36.999 24,36.999 C24.553,36.999 25,37.447 25,37.999 L25,46.999 C25,47.551 24.553,47.999 24,47.999" id="Fill-5"></path>
                <path d="M47,24.999 L38,24.999 C37.447,24.999 37,24.551 37,23.999 C37,23.447 37.447,22.999 38,22.999 L47,22.999 C47.553,22.999 48,23.447 48,23.999 C48,24.551 47.553,24.999 47,24.999" id="Fill-7"></path>
                <path d="M10,24.999 L1,24.999 C0.447,24.999 0,24.551 0,23.999 C0,23.447 0.447,22.999 1,22.999 L10,22.999 C10.553,22.999 11,23.447 11,23.999 C11,24.551 10.553,24.999 10,24.999" id="Fill-9"></path>
                <path d="M41,41.999 C40.744,41.999 40.488,41.901 40.293,41.706 L33.191,34.604 C32.801,34.214 32.801,33.581 33.191,33.19 C33.582,32.8 34.215,32.8 34.605,33.19 L41.707,40.292 C42.098,40.682 42.098,41.316 41.707,41.706 C41.512,41.901 41.256,41.999 41,41.999" id="Fill-11"></path>
                <path d="M14.1006,15.1006 C13.8446,15.1006 13.5886,15.0026 13.3936,14.8076 L6.2926,7.7066 C5.9026,7.3166 5.9026,6.6836 6.2926,6.2926 C6.6836,5.9026 7.3166,5.9026 7.7066,6.2926 L14.8076,13.3936 C15.1986,13.7836 15.1986,14.4176 14.8076,14.8076 C14.6126,15.0026 14.3566,15.1006 14.1006,15.1006" id="Fill-13"></path>
                <path d="M7.001,41.999 C6.745,41.999 6.489,41.901 6.294,41.706 C5.903,41.316 5.903,40.683 6.294,40.292 L13.394,33.19 C13.785,32.8 14.418,32.8 14.809,33.19 C15.199,33.581 15.199,34.214 14.809,34.604 L7.708,41.706 C7.513,41.901 7.257,41.999 7.001,41.999" id="Fill-15"></path>
                <path d="M33.9004,15.1006 C33.6444,15.1006 33.3884,15.0026 33.1934,14.8076 C32.8024,14.4176 32.8024,13.7836 33.1934,13.3936 L40.2934,6.2926 C40.6844,5.9026 41.3174,5.9026 41.7084,6.2926 C42.0984,6.6836 42.0984,7.3166 41.7084,7.7066 L34.6074,14.8076 C34.4124,15.0026 34.1564,15.1006 33.9004,15.1006" id="Fill-17"></path>
            </g>
        </g>
    </g>
</svg>