<?xml version="1.0" encoding="UTF-8"?>

<svg width="47.9336px" height="44px" viewBox="0 0 47.9336 44" version="1.1" xmlns="http://www.w3.org/2000/svg" xmlns:xlink="http://www.w3.org/1999/xlink">
    <g id="Gapstars" stroke="none" stroke-width="1" fill="none" fill-rule="evenodd">
        <g id="Gapstars-2023---Careers-New-001" transform="translate(-1157, -260)" fill="#E87A2E">
            <g id="Group-11" transform="translate(1157, 260)">
                <path d="M26.002,44 L1.934,44 C0.867,44 0,43.163 0,42.135 L0,40 C0,39.65 0.183,39.325 0.483,39.144 L10.414,33.144 C10.885,32.858 11.5,33.01 11.787,33.483 C12.072,33.956 11.92,34.57 11.448,34.856 L2,40.564 L2,42 L25.934,42 L25.934,40.562 L16.417,34.858 C15.944,34.574 15.79,33.96 16.074,33.486 C16.357,33.013 16.971,32.859 17.446,33.142 L27.448,39.138 C27.749,39.319 27.934,39.645 27.934,39.996 L27.934,42.135 C27.934,43.163 27.067,44 26.002,44" id="Fill-1"></path>
                <path d="M10.9302,35 C10.6972,35 10.4632,34.919 10.2732,34.753 C6.9652,31.866 6.9332,26.941 6.9332,26.733 L6.9352,20.839 C6.9352,20.788 6.9392,20.736 6.9482,20.685 C7.4832,17.285 10.9912,15.002 13.9312,15.002 C14.4842,15.002 14.9312,15.45 14.9312,16.002 C14.9312,16.554 14.4842,17.002 13.9312,17.002 C11.8862,17.002 9.3382,18.674 8.9352,20.923 L8.9332,26.735 C8.9332,26.776 8.9752,30.965 11.5882,33.247 C12.0042,33.61 12.0472,34.242 11.6842,34.658 C11.4862,34.884 11.2092,35 10.9302,35" id="Fill-3"></path>
                <path d="M16.9321,35 C16.6531,35 16.3761,34.884 16.1781,34.658 C15.8151,34.242 15.8581,33.61 16.2741,33.247 C18.8891,30.963 18.9341,26.773 18.9341,26.731 L18.9311,20.919 C18.5281,18.671 15.9781,17 13.9321,17 C13.3791,17 12.9321,16.552 12.9321,16 C12.9321,15.448 13.3791,15 13.9321,15 C16.8731,15 20.3821,17.282 20.9181,20.68 C20.9271,20.731 20.9311,20.783 20.9311,20.835 L20.9341,26.732 C20.9341,26.94 20.8971,31.864 17.5891,34.753 C17.4001,34.919 17.1651,35 16.9321,35" id="Fill-5"></path>
                <path d="M46.9336,18 L34.9336,18 C34.3816,18 33.9336,17.552 33.9336,17 C33.9336,16.448 34.3816,16 34.9336,16 L45.9336,16 L45.9336,2 L25.9336,2 L25.9336,16 L28.9336,16 C29.4856,16 29.9336,16.448 29.9336,17 C29.9336,17.552 29.4856,18 28.9336,18 L24.9336,18 C24.3816,18 23.9336,17.552 23.9336,17 L23.9336,1 C23.9336,0.448 24.3816,0 24.9336,0 L46.9336,0 C47.4856,0 47.9336,0.448 47.9336,1 L47.9336,17 C47.9336,17.552 47.4856,18 46.9336,18" id="Fill-7"></path>
                <path d="M28.9336,24 C28.8046,24 28.6746,23.975 28.5506,23.924 C28.1776,23.769 27.9336,23.404 27.9336,23 L27.9336,17 C27.9336,16.448 28.3816,16 28.9336,16 C29.4856,16 29.9336,16.448 29.9336,17 L29.9336,20.586 L34.2266,16.293 C34.6176,15.902 35.2496,15.902 35.6406,16.293 C36.0316,16.684 36.0316,17.316 35.6406,17.707 L29.6406,23.707 C29.4496,23.898 29.1936,24 28.9336,24" id="Fill-9"></path>
            </g>
        </g>
    </g>
</svg>