<?xml version="1.0" encoding="UTF-8"?>
<svg width="168px" height="88px" viewBox="0 0 168 88" version="1.1" xmlns="http://www.w3.org/2000/svg" xmlns:xlink="http://www.w3.org/1999/xlink">
    <title>Fixico</title>
    <defs>
        <polygon id="path-1" points="0.2 81.4281 167.936592 81.4281 167.936592 7.8 0.2 7.8"></polygon>
    </defs>
    <g id="Gapstars" stroke="none" stroke-width="1" fill="none" fill-rule="evenodd">
        <g id="Gapstars-2022---Homepage-nieuw-explainer-001" transform="translate(-774.000000, -3028.000000)">
            <g id="Fixico" transform="translate(774.000000, 3028.000000)">
                <rect id="Rectangle-Copy-6" x="0" y="0" width="168" height="87.75"></rect>
                <path d="M84.0767634,11.2635395 C96.2997643,11.2635395 107.143711,16.7053923 113.832087,25.0540826 L54.3214393,25.0540826 C61.0098159,16.7061286 71.8537625,11.2635395 84.0767634,11.2635395 L84.0767634,11.2635395 Z M118.144485,25.0540826 C111.015076,14.6924001 98.4018465,7.7934471 84.0598289,7.80006886 C69.7325369,7.80670016 57.1369779,14.7034443 50.0127229,25.0540826 L0.20036814,25.0540826 L1.89307816,28.508713 L166.243514,28.508713 L167.936224,25.0540826 L118.144485,25.0540826 Z" id="Fill-1" fill="#FFFFFF"></path>
                <path d="M84.0767634,77.963088 C72.6872326,77.963088 62.4941584,73.2376365 55.7446705,65.8380125 L112.40812,65.8380125 C105.659368,73.2376365 95.4670304,77.963088 84.0767634,77.963088 L84.0767634,77.963088 Z M19.7633543,65.8380125 L51.2275866,65.8380125 C58.523395,75.2675632 70.5350832,81.4346529 84.0936978,81.4280317 C97.6375868,81.4213998 109.632341,75.2572553 116.922259,65.8380125 L148.373238,65.8380125 L150.066684,62.3848546 L18.069908,62.3848546 L19.7633543,65.8380125 Z" id="Fill-3" fill="#FFFFFF"></path>
                <mask id="mask-2" fill="white">
                    <use xlink:href="#path-1"></use>
                </mask>
                <g id="Clip-6"></g>
                <polygon id="Fill-5" fill="#FFFFFF" mask="url(#mask-2)" points="51.3531225 55.9594039 56.0388148 55.9594039 56.0388148 34.7670279 51.3531225 34.7670279"></polygon>
                <polygon id="Fill-7" fill="#FFFFFF" mask="url(#mask-2)" points="83.6280001 55.9594039 88.3136924 55.9594039 88.3136924 34.7670279 83.6280001 34.7670279"></polygon>
                <polygon id="Fill-8" fill="#FFFFFF" mask="url(#mask-2)" points="65.3749315 55.9595512 69.9730063 49.3028347 74.5703449 55.9595512 80.012934 55.9595512 72.6935646 45.362995 80.012934 34.7671752 74.5703449 34.7671752 69.9730063 41.4238917 65.3749315 34.7671752 59.9323423 34.7671752 67.2517117 45.362995 59.9323423 55.9595512"></polygon>
                <polygon id="Fill-9" fill="#FFFFFF" mask="url(#mask-2)" points="47.4744678 39.0466612 47.4744678 34.767396 36.0473867 34.767396 33.1552749 34.767396 31.3616944 34.767396 31.3616944 55.9597721 36.0473867 55.9597721 36.0473867 47.7561292 46.149162 47.7561292 46.149162 43.476864 36.0473867 43.476864 36.0473867 39.0466612"></polygon>
                <path d="M119.032808,45.3575466 C119.032808,41.7306263 121.668694,38.7796121 125.478948,38.7796121 C129.288466,38.7796121 131.779305,41.7306263 131.779305,45.3575466 C131.779305,48.9844668 129.288466,51.935481 125.478948,51.935481 C121.668694,51.935481 119.032808,48.9844668 119.032808,45.3575466 M136.774972,45.3575466 C136.774972,39.3016353 131.718194,34.3921136 125.478948,34.3921136 C119.239703,34.3921136 114.182189,39.3016353 114.182189,45.3575466 C114.182189,51.4134578 119.239703,56.3222432 125.478948,56.3222432 C131.718194,56.3222432 136.774972,51.4134578 136.774972,45.3575466" id="Fill-10" fill="#FFFFFF" mask="url(#mask-2)"></path>
                <path d="M103.804603,38.7799066 C105.954543,38.7799066 107.684067,39.7201374 108.783335,41.1912269 L112.042115,37.8588191 C109.982,35.7272856 107.054547,34.3924081 103.804603,34.3924081 C97.5653577,34.3924081 92.5078435,39.3019298 92.5078435,45.3578411 C92.5078435,51.413016 97.5653577,56.3218014 103.804603,56.3218014 C107.174561,56.3218014 110.198467,54.887526 112.267417,52.6160992 L108.971823,49.2454047 C107.887281,50.8725858 106.085601,51.9350392 103.804603,51.9350392 C99.9943487,51.9350392 97.3584627,48.984025 97.3584627,45.3578411 C97.3584627,41.7309209 99.9943487,38.7799066 103.804603,38.7799066" id="Fill-11" fill="#FFFFFF" mask="url(#mask-2)"></path>
            </g>
        </g>
    </g>
</svg>