<svg id="Group_8" data-name="Group 8" xmlns="http://www.w3.org/2000/svg" xmlns:xlink="http://www.w3.org/1999/xlink" width="52" height="52" viewBox="0 0 52 52">
  <defs>
    <clipPath id="clip-path">
      <path id="Clip_2" data-name="Clip 2" d="M0,0H52V52H0Z" fill="none"/>
    </clipPath>
  </defs>
  <g id="Group_3" data-name="Group 3">
    <path id="Clip_2-2" data-name="Clip 2" d="M0,0H52V52H0Z" fill="none"/>
    <g id="Group_3-2" data-name="Group 3" clip-path="url(#clip-path)">
      <path id="Fill_1" data-name="Fill 1" d="M26,52A26.007,26.007,0,0,1,15.88,2.043,26.007,26.007,0,0,1,36.121,49.957,25.837,25.837,0,0,1,26,52ZM26,1.95A24.05,24.05,0,1,0,50.05,26,24.077,24.077,0,0,0,26,1.95Z" transform="translate(0)" fill="#e87a2e"/>
    </g>
  </g>
  <path id="Fill_4" data-name="Fill 4" d="M19.5,39A19.5,19.5,0,0,1,11.91,1.532,19.5,19.5,0,0,1,27.09,37.467,19.375,19.375,0,0,1,19.5,39Zm0-37.049A17.55,17.55,0,1,0,37.05,19.5,17.57,17.57,0,0,0,19.5,1.95Z" transform="translate(6.5 13)" fill="#e87a2e"/>
  <path id="Fill_6" data-name="Fill 6" d="M13,26A13,13,0,0,1,3.808,3.808,13,13,0,1,1,22.192,22.192,12.915,12.915,0,0,1,13,26ZM13,1.95A11.05,11.05,0,1,0,24.05,13,11.062,11.062,0,0,0,13,1.95Z" transform="translate(13 25.589)" fill="#e87a2e"/>
</svg>
