<svg id="Group_5_Copy_4" data-name="Group 5 Copy 4" xmlns="http://www.w3.org/2000/svg" width="58" height="58" viewBox="0 0 58 58">
  <path id="Fill_1" data-name="Fill 1" d="M29,29H0L14.5,0,29,29ZM14.5,4.864,3.52,26.825H25.481L14.5,4.864Z" transform="translate(0 28.999)" fill="#e87a2e"/>
  <path id="Fill_2" data-name="Fill 2" d="M14.5,29v0L0,0H29L14.5,29ZM3.52,2.175h0L14.5,24.137,25.481,2.175H3.52Z" fill="#e87a2e"/>
  <path id="Fill_3" data-name="Fill 3" d="M29,29H0L14.5,0,29,29ZM14.5,4.864,3.52,26.825H25.481L14.5,4.864Z" transform="translate(28.999 28.999)" fill="#e87a2e"/>
  <path id="Fill_4" data-name="Fill 4" d="M14.5,29v0L0,0H29L14.5,29ZM3.52,2.175,14.5,24.137,25.481,2.175Z" transform="translate(28.999)" fill="#e87a2e"/>
</svg>
