<svg id="Group_3" data-name="Group 3" xmlns="http://www.w3.org/2000/svg" xmlns:xlink="http://www.w3.org/1999/xlink" width="52" height="52" viewBox="0 0 52 52">
  <defs>
    <clipPath id="clip-path">
      <path id="Clip_2" data-name="Clip 2" d="M0,0H52V52H0Z" fill="none"/>
    </clipPath>
  </defs>
  <path id="Clip_2-2" data-name="Clip 2" d="M0,0H52V52H0Z" fill="none"/>
  <g id="Group_3-2" data-name="Group 3" clip-path="url(#clip-path)">
    <path id="Fill_1" data-name="Fill 1" d="M52,52H0V0H52V52ZM50.05,28.037h0A24.078,24.078,0,0,0,28.036,50.05H50.05V28.037ZM25.921,1.95h0A25.967,25.967,0,0,1,18.38,18.38,25.97,25.97,0,0,1,1.95,25.92v.16a25.971,25.971,0,0,1,16.43,7.54A25.968,25.968,0,0,1,25.921,50.05h.159A25.995,25.995,0,0,1,50.05,26.08v-.16a25.969,25.969,0,0,1-16.429-7.54A25.968,25.968,0,0,1,26.08,1.95ZM1.95,28.037V50.05H23.965a24.04,24.04,0,0,0-6.971-15.043A24.035,24.035,0,0,0,1.95,28.037ZM28.036,1.95h0a24.041,24.041,0,0,0,6.971,15.043A24.036,24.036,0,0,0,50.05,23.964V1.95H28.036ZM1.95,1.95V23.964a24.038,24.038,0,0,0,15.044-6.971A24.04,24.04,0,0,0,23.965,1.95Z" transform="translate(0 0)" fill="#e87a2e"/>
  </g>
</svg>
