<svg id="Group_3" data-name="Group 3" xmlns="http://www.w3.org/2000/svg" xmlns:xlink="http://www.w3.org/1999/xlink" width="52" height="52" viewBox="0 0 52 52">
  <defs>
    <clipPath id="clip-path">
      <path id="Clip_2" data-name="Clip 2" d="M0,0H52V52H0Z" fill="none"/>
    </clipPath>
  </defs>
  <path id="Clip_2-2" data-name="Clip 2" d="M0,0H52V52H0Z" fill="none"/>
  <g id="Group_3-2" data-name="Group 3" clip-path="url(#clip-path)">
    <path id="Fill_1" data-name="Fill 1" d="M26,52A26.007,26.007,0,0,1,15.88,2.043,26.007,26.007,0,0,1,36.12,49.957,25.835,25.835,0,0,1,26,52Zm-.007-6.319a26.077,26.077,0,0,1-5.6,3.7,23.916,23.916,0,0,0,11.213,0A26.019,26.019,0,0,1,25.993,45.681ZM34.49,3.5a24.039,24.039,0,0,0-7.052,4.156,25.944,25.944,0,0,1,5.553,8.248,26.018,26.018,0,0,1,0,20.189,25.942,25.942,0,0,1-5.553,8.248A24.017,24.017,0,0,0,34.49,48.5a24.06,24.06,0,0,0,0-45Zm-16.978,0a24.059,24.059,0,0,0,0,45,24,24,0,0,0,7.044-4.154,25.959,25.959,0,0,1,0-36.687A24.067,24.067,0,0,0,17.511,3.5ZM26,8.986h0a23.987,23.987,0,0,0,0,34.029,24.025,24.025,0,0,0,5.179-7.649,24.008,24.008,0,0,0,0-18.731A24.024,24.024,0,0,0,26,8.986ZM26,1.95a24.069,24.069,0,0,0-5.607.667,26.04,26.04,0,0,1,5.6,3.7,26.055,26.055,0,0,1,5.614-3.7A24.086,24.086,0,0,0,26,1.95Z" transform="translate(0 0)" fill="#e87a2e"/>
  </g>
</svg>
