<?xml version="1.0" encoding="UTF-8"?>
<svg width="80px" height="80px" viewBox="0 0 80 80" version="1.1" xmlns="http://www.w3.org/2000/svg" xmlns:xlink="http://www.w3.org/1999/xlink">
    <title>Group 9</title>
    <g id="Gapstars" stroke="none" stroke-width="1" fill="none" fill-rule="evenodd">
        <g id="Gapstars-2022---Homepage-nieuw-explainer-001" transform="translate(-1086.000000, -1052.000000)" fill="#E87A2E">
            <g id="Group-9" transform="translate(1086.000000, 1052.000000)">
                <path d="M20,0 C8.954,0 0,8.954 0,20 C0,31.046 8.954,40 20,40 C31.046,40 40,31.046 40,20 C40,8.954 31.046,0 20,0 M20,3 C29.374,3 37,10.626 37,20 C37,29.374 29.374,37 20,37 C10.626,37 3,29.374 3,20 C3,10.626 10.626,3 20,3" id="Fill-1"></path>
                <path d="M60,0 C48.954,0 40,8.954 40,20 C40,31.046 48.954,40 60,40 C71.046,40 80,31.046 80,20 C80,8.954 71.046,0 60,0 M60,3 C69.374,3 77,10.626 77,20 C77,29.374 69.374,37 60,37 C50.626,37 43,29.374 43,20 C43,10.626 50.626,3 60,3" id="Fill-3"></path>
                <path d="M20,40 C8.954,40 0,48.954 0,60 C0,71.046 8.954,80 20,80 C31.046,80 40,71.046 40,60 C40,48.954 31.046,40 20,40 M20,43 C29.374,43 37,50.626 37,60 C37,69.374 29.374,77 20,77 C10.626,77 3,69.374 3,60 C3,50.626 10.626,43 20,43" id="Fill-5"></path>
                <path d="M60,40 C48.954,40 40,48.954 40,60 C40,71.046 48.954,80 60,80 C71.046,80 80,71.046 80,60 C80,48.954 71.046,40 60,40 M60,43 C69.374,43 77,50.626 77,60 C77,69.374 69.374,77 60,77 C50.626,77 43,69.374 43,60 C43,50.626 50.626,43 60,43" id="Fill-7"></path>
            </g>
        </g>
    </g>
</svg>