<svg id="Group_5" data-name="Group 5" xmlns="http://www.w3.org/2000/svg" width="44" height="44" viewBox="0 0 44 44">
  <path id="Fill_1" data-name="Fill 1" d="M11,22h0L0,11,11,0,22,11,11,22ZM11,2.334h0L2.335,11,11,19.666,19.666,11,11,2.334Z" transform="translate(22)" fill="#e87a2e"/>
  <path id="Fill_2" data-name="Fill 2" d="M11,22h0L0,11,11,0,22,11,11,22ZM11,2.334h0L2.335,11,11,19.666,19.666,11,11,2.334Z" fill="#e87a2e"/>
  <path id="Fill_3" data-name="Fill 3" d="M11,22h0L0,11,11,0,22,11,11,22ZM11,2.335h0L2.335,11,11,19.666,19.666,11,11,2.335Z" transform="translate(22 22)" fill="#e87a2e"/>
  <path id="Fill_4" data-name="Fill 4" d="M11,22h0L0,11,11,0,22,11,11,22ZM11,2.335h0L2.335,11,11,19.666,19.666,11,11,2.335Z" transform="translate(0 22)" fill="#e87a2e"/>
</svg>
