<?xml version="1.0" encoding="UTF-8"?>
<svg width="80px" height="80px" viewBox="0 0 80 80" version="1.1" xmlns="http://www.w3.org/2000/svg" xmlns:xlink="http://www.w3.org/1999/xlink">
    <title>Group 5 Copy</title>
    <g id="Gapstars" stroke="none" stroke-width="1" fill="none" fill-rule="evenodd">
        <g id="Gapstars-2022---Homepage-nieuw-explainer-001" transform="translate(-710.000000, -1051.000000)" fill="#E87A2E">
            <g id="Group-5-Copy" transform="translate(750.000000, 1091.000000) scale(-1, 1) translate(-750.000000, -1091.000000) translate(710.000000, 1051.000000)">
                <path d="M0,40.0004 L40,80.0004 L40,40.0004 L0,40.0004 Z M7.242,43.0004 L37,43.0004 L37,72.7574 L7.242,43.0004 Z" id="Fill-1"></path>
                <path d="M39.9996,40.0004 L80.0006,80.0004 L80.0006,40.0004 L39.9996,40.0004 Z M47.2416,43.0004 L77.0006,43.0004 L77.0006,72.7574 L47.2416,43.0004 Z" id="Fill-2"></path>
                <path d="M0,-0.0001 L40,40.0009 L40,-0.0001 L0,-0.0001 Z M7.242,2.9999 L37,2.9999 L37,32.7579 L7.242,2.9999 Z" id="Fill-3"></path>
                <path d="M39.9996,-0.0001 L80.0006,40.0009 L80.0006,-0.0001 L39.9996,-0.0001 Z M47.2416,2.9999 L77.0006,2.9999 L77.0006,32.7579 L47.2416,2.9999 Z" id="Fill-4"></path>
            </g>
        </g>
    </g>
</svg>