<svg id="Group_11" data-name="Group 11" xmlns="http://www.w3.org/2000/svg" xmlns:xlink="http://www.w3.org/1999/xlink" width="44" height="44" viewBox="0 0 44 44">
  <defs>
    <clipPath id="clip-path">
      <path id="Clip_2" data-name="Clip 2" d="M0,0H22V44H0Z" fill="none"/>
    </clipPath>
  </defs>
  <g id="Group_3" data-name="Group 3">
    <path id="Clip_2-2" data-name="Clip 2" d="M0,0H22V44H0Z" fill="none"/>
    <g id="Group_3-2" data-name="Group 3" clip-path="url(#clip-path)">
      <path id="Fill_1" data-name="Fill 1" d="M0,1.65A20.373,20.373,0,0,1,20.35,22,20.373,20.373,0,0,1,0,42.35V44A22,22,0,0,0,22,22,22,22,0,0,0,0,0Z" transform="translate(0 0)" fill="#e87a2e"/>
    </g>
  </g>
  <path id="Fill_4" data-name="Fill 4" d="M0,1.65A9.361,9.361,0,0,1,9.35,11,9.36,9.36,0,0,1,0,20.35V22A11,11,0,0,0,11,11,11,11,0,0,0,0,0Z" transform="translate(0 11)" fill="#e87a2e"/>
  <g id="Group_8" data-name="Group 8" transform="translate(22)">
    <path id="Clip_7-2" data-name="Clip 7" d="M0,0H22V44H0Z" fill="none"/>
    <g id="Group_8-2" data-name="Group 8" clip-path="url(#clip-path)">
      <path id="Fill_6" data-name="Fill 6" d="M22,42.35a20.35,20.35,0,1,1,0-40.7V0a22,22,0,0,0,0,44Z" transform="translate(0 0)" fill="#e87a2e"/>
    </g>
  </g>
  <path id="Fill_9" data-name="Fill 9" d="M11,20.35a9.35,9.35,0,0,1,0-18.7V0a11,11,0,0,0,0,22Z" transform="translate(33 11)" fill="#e87a2e"/>
</svg>
