<svg xmlns="http://www.w3.org/2000/svg" width="80.001" height="80" viewBox="0 0 80.001 80">
  <g id="Group_5_Copy" data-name="Group 5 Copy" transform="translate(80.001 0)">
    <path id="Fill_1" data-name="Fill 1" d="M-40,40l0,0L0,0H-40V40ZM-7.242,3h0L-37,32.757V3H-7.242Z" transform="translate(0 40)" fill="#e87a2e"/>
    <path id="Fill_2" data-name="Fill 2" d="M-40,40l0,0L0,0H-40V40ZM-7.242,3h0L-37,32.757V3H-7.242Z" transform="translate(-40 40)" fill="#e87a2e"/>
    <path id="Fill_3" data-name="Fill 3" d="M-40,40l0,0L0,0H-40V40ZM-7.242,3-37,32.758V3Z" transform="translate(0 0)" fill="#e87a2e"/>
    <path id="Fill_4" data-name="Fill 4" d="M-40,40l0,0L0,0H-40V40ZM-7.242,3-37,32.758V3Z" transform="translate(-40 0)" fill="#e87a2e"/>
  </g>
</svg>
