<svg xmlns="http://www.w3.org/2000/svg" xmlns:xlink="http://www.w3.org/1999/xlink" width="52" height="52.001" viewBox="0 0 52 52.001">
  <defs>
    <clipPath id="clip-path">
      <path id="Fill_1" data-name="Fill 1" d="M52,52H0V0H52V52ZM26.975,26.976V50.051H50.051V26.976Zm-25.025,0V50.051H25.025V26.976ZM26.975,1.95V25.025H50.051V1.95ZM1.95,1.95V25.025H25.025V1.95Z" transform="translate(-1771 -862)" fill="#e87a2e"/>
    </clipPath>
  </defs>
  <g id="Group_1" data-name="Group 1" transform="translate(1771 862)">
    <path id="Fill_1-2" data-name="Fill 1" d="M52,52H0V0H52V52ZM26.975,26.976V50.051H50.051V26.976Zm-25.025,0V50.051H25.025V26.976ZM26.975,1.95V25.025H50.051V1.95ZM1.95,1.95V25.025H25.025V1.95Z" transform="translate(-1771 -862)" fill="#e87a2e"/>
  </g>
</svg>
