<svg id="Group_9" data-name="Group 9" xmlns="http://www.w3.org/2000/svg" xmlns:xlink="http://www.w3.org/1999/xlink" width="52" height="52" viewBox="0 0 52 52">
  <defs>
    <clipPath id="clip-path">
      <path id="Clip_2" data-name="Clip 2" d="M0,0H26V26H0Z" transform="translate(0)" fill="none"/>
    </clipPath>
    <clipPath id="clip-path-2">
      <path id="Clip_7" data-name="Clip 7" d="M0,52H52V0H0Z" fill="none"/>
    </clipPath>
  </defs>
  <g id="Group_3" data-name="Group 3" transform="translate(26)">
    <path id="Clip_2-2" data-name="Clip 2" d="M0,0H26V26H0Z" transform="translate(0)" fill="none"/>
    <g id="Group_3-2" data-name="Group 3" clip-path="url(#clip-path)">
      <path id="Fill_1" data-name="Fill 1" d="M13,26A13,13,0,0,1,3.808,3.808,13,13,0,1,1,22.192,22.192,12.915,12.915,0,0,1,13,26ZM13,1.95A11.05,11.05,0,1,0,24.05,13,11.062,11.062,0,0,0,13,1.95Z" transform="translate(0 0)" fill="#e87a2e"/>
    </g>
  </g>
  <path id="Fill_4" data-name="Fill 4" d="M13,26A13,13,0,0,1,3.808,3.808,13,13,0,1,1,22.192,22.192,12.915,12.915,0,0,1,13,26ZM13,1.95A11.05,11.05,0,1,0,24.05,13,11.062,11.062,0,0,0,13,1.95Z" transform="translate(0 26)" fill="#e87a2e"/>
  <path id="Clip_7-2" data-name="Clip 7" d="M0,52H52V0H0Z" fill="none"/>
  <g id="Mask_Group_4" data-name="Mask Group 4" clip-path="url(#clip-path-2)">
    <path id="Fill_6" data-name="Fill 6" d="M26,26H0V0H26V26ZM1.95,1.95v22.1h22.1V1.95Z" fill="#e87a2e"/>
    <path id="Fill_8" data-name="Fill 8" d="M26,26H0V0H26V26ZM1.95,1.95v22.1h22.1V1.95Z" transform="translate(26 26)" fill="#e87a2e"/>
  </g>
</svg>
