<svg id="Group_5" data-name="Group 5" xmlns="http://www.w3.org/2000/svg" width="80" height="80" viewBox="0 0 80 80">
  <path id="Fill_1" data-name="Fill 1" d="M30,60A30.008,30.008,0,0,1,18.323,2.358,30.008,30.008,0,0,1,41.677,57.643,29.811,29.811,0,0,1,30,60ZM30,3A27,27,0,1,0,57,30,27.031,27.031,0,0,0,30,3Z" transform="translate(20)" fill="#e87a2e"/>
  <path id="Fill_3" data-name="Fill 3" d="M30,60A30.008,30.008,0,0,1,18.323,2.358,30.008,30.008,0,0,1,41.677,57.643,29.811,29.811,0,0,1,30,60ZM30,3A27,27,0,1,0,57,30,27.031,27.031,0,0,0,30,3Z" transform="translate(0 20)" fill="#e87a2e"/>
</svg>
