<?xml version="1.0" encoding="UTF-8"?>
<svg width="335px" height="130px" viewBox="0 0 335 130" version="1.1" xmlns="http://www.w3.org/2000/svg" xmlns:xlink="http://www.w3.org/1999/xlink">
    <title>alicia-logo</title>
    <g id="Page-1" stroke="none" stroke-width="1" fill="none" fill-rule="evenodd">
        <g id="alicia-logo" fill="#FFFFFF" fill-rule="nonzero">
            <path d="M66.91868,88.4385859 L25.4919442,88.4385859 L16.7564816,111 L0,111 L36.9070732,19 L56.0751811,19 L93,111 L75.4934248,111 L66.91868,88.4385859 Z M30.7797426,75.1805009 L61.7734813,75.1805009 L46.5893697,35.4963331 L46.2142246,35.4963331 L30.7797426,75.1805009 Z" id="Shape"></path>
            <polygon id="Path" points="98 111 98 17 115 17 115 111"></polygon>
            <path d="M127,19 L145,19 L145,34.9906812 L127,34.9906812 L127,19 Z M127.532337,46.0065373 L144.46706,46.0065373 L144.46706,111 L127.532337,111 L127.532337,46.0065373 Z" id="Shape"></path>
            <path d="M185.670979,44 C201.828619,44 212.202825,53.3364959 214,67.7673724 L198.483081,67.7673724 C197.201637,60.6673109 192.984671,56.2652493 185.546572,56.2652493 C175.172367,56.2652493 169.406453,64.8384433 169.406453,78.0089607 C169.406453,91.1794782 175.172367,99.7349264 185.546572,99.7349264 C192.984671,99.7349264 197.201637,95.1198571 198.483081,88.232979 L214,88.232979 C212.220347,102.788017 201.828619,112 185.670979,112 C166.577231,112 153,99.0959618 153,78.0089607 C153,56.9220182 166.577231,44 185.670979,44 Z" id="Path"></path>
            <path d="M222,19 L240,19 L240,34.9906812 L222,34.9906812 L222,19 Z M222.532922,46.0065373 L239.467078,46.0065373 L239.467078,111 L222.459374,111 L222.532922,46.0065373 Z" id="Shape"></path>
            <path d="M291.127509,100.335022 C288.008846,107.767844 279.69892,112 269.189779,112 C256.337646,112 247,104.886951 247,93.168579 C247,80.1159605 257.383117,74.7279269 270.739939,73.1988824 L290.478453,71.0291178 L290.478453,67.9528399 C290.478453,60.0042728 285.539831,56.163238 278.022735,56.163238 C270.50564,56.163238 266.342098,60.1286617 265.819067,66.1568287 L249.848272,66.1568287 C251.271816,52.1977555 262.303989,44 278.545175,44 C296.445387,44 306.701888,52.3222031 306.701888,69.2331066 L306.701888,94.3244569 C306.583556,99.7770319 307.018429,105.227847 308,110.595344 L292.028613,110.595344 C291.423932,107.207508 291.122775,103.774492 291.127509,100.335022 L291.127509,100.335022 Z M290.478453,85.3620031 L290.478453,81.3962273 L275.805178,83.0502474 C268.793364,83.9573475 263.475485,85.4863919 263.475485,92.2790812 C263.475485,97.4007348 267.081087,100.601402 273.732577,100.601402 C282.295144,100.601402 290.478453,95.6047236 290.478453,85.3620031 Z" id="Shape"></path>
            <polygon id="Path" points="335 0 335 130 333 130 333 0"></polygon>
            <path d="M321.998583,26.0186616 C321.995046,27.6008369 321.52228,29.1464025 320.640413,30.4599299 C319.758546,31.7733984 318.506483,32.7959347 317.043975,33.3980197 C315.580288,34.0001636 313.971588,34.1549147 312.420657,33.8427007 C310.869726,33.5305456 309.446124,32.7653382 308.330232,31.6440559 C307.21375,30.5227736 306.455085,29.0955852 306.150322,27.5431221 C305.84497,25.9906591 306.007078,24.3825445 306.616014,22.9221657 C307.224951,21.4618458 308.25242,20.2148172 309.570505,19.3388375 C310.887411,18.4627989 312.435394,17.9971897 314.017568,18.0007858 C315.072743,17.9858707 316.120255,18.1834216 317.097618,18.5815298 C318.074982,18.9796971 318.962744,19.5702862 319.707261,20.3183383 C320.451779,21.0663315 321.038315,21.9564599 321.43209,22.9356659 C321.825864,23.9149309 322.018625,24.9634065 321.998583,26.0186616 Z M320.884459,26.0186616 C320.855575,24.6669918 320.428789,23.353936 319.657155,22.2440906 C318.884932,21.1341272 317.80323,20.2767177 316.545862,19.7792739 C315.289083,19.2818302 313.91264,19.1665185 312.590428,19.4477823 C311.268217,19.7290461 310.058597,20.3943285 309.112476,21.3602702 C308.166945,22.3262118 307.527356,23.5498951 307.273878,24.877866 C307.0204,26.2058957 307.164234,27.5790834 307.688285,28.8254045 C308.211746,30.0717257 309.091844,31.1357649 310.217758,31.8840528 C311.34426,32.6323996 312.665882,33.0317459 314.017568,33.0320407 C314.935393,33.0449514 315.846145,32.8713353 316.695001,32.5215684 C317.543268,32.1718014 318.311954,31.6532526 318.954491,30.9974026 C319.596438,30.3415527 320.099268,29.5620198 320.431147,28.706202 C320.762436,27.8503841 320.916881,26.9360262 320.884459,26.0186616 Z M310.821389,30.146301 L310.821389,21.6353439 L314.474417,21.6353439 C316.428555,21.6353439 317.5975,22.5667982 317.5975,24.3018971 C317.626974,24.842907 317.476656,25.3784932 317.168946,25.8247069 C316.861825,26.2709207 316.414996,26.6025302 315.898609,26.7674801 L317.907568,30.1280846 L316.081349,30.1280846 L314.255129,27.0414928 L312.42832,27.0414928 L312.42832,30.1280846 L310.821389,30.146301 Z M314.255129,25.6716654 C315.405211,25.6716654 315.917473,25.2516267 315.917473,24.3201135 C315.917473,23.3886592 315.405211,23.0051123 314.255129,23.0051123 L312.42832,23.0051123 L312.42832,25.6716654 L314.255129,25.6716654 Z" id="Shape"></path>
        </g>
    </g>
</svg>