<svg xmlns="http://www.w3.org/2000/svg" xmlns:xlink="http://www.w3.org/1999/xlink" width="28.81" height="51.964" viewBox="0 0 28.81 51.964">
  <defs>
    <clipPath id="clip-path">
      <path id="Clip_2" data-name="Clip 2" d="M0,0H-28.81V51.964H0Z" fill="none"/>
    </clipPath>
  </defs>
  <g id="Group_3_Copy_3" data-name="Group 3 Copy 3" transform="translate(0 51.964) rotate(180)">
    <path id="Clip_2-2" data-name="Clip 2" d="M0,0H-28.81V51.964H0Z" fill="none"/>
    <g id="Group_3_Copy_3-2" data-name="Group 3 Copy 3" clip-path="url(#clip-path)">
      <path id="Fill_1" data-name="Fill 1" d="M-2,51.965a2,2,0,0,0,1.414-.586,2,2,0,0,0,0-2.828L-23.154,25.983-.586,3.414a2,2,0,0,0,0-2.828,2,2,0,0,0-2.828,0l-25.4,25.4,25.4,25.4A2,2,0,0,0-2,51.965" transform="translate(0.001 -0.001)" fill="#fff"/>
    </g>
  </g>
</svg>
