<svg id="Group_20" data-name="Group 20" xmlns="http://www.w3.org/2000/svg" xmlns:xlink="http://www.w3.org/1999/xlink" width="221" height="42" viewBox="0 0 221 42">
  <defs>
    <clipPath id="clip-path">
      <path id="Clip_2" data-name="Clip 2" d="M0,0H47.023V42H0Z" fill="none"/>
    </clipPath>
  </defs>
  <g id="Group_3" data-name="Group 3">
    <path id="Clip_2-2" data-name="Clip 2" d="M0,0H47.023V42H0Z" fill="none"/>
    <g id="Group_3-2" data-name="Group 3" clip-path="url(#clip-path)">
      <path id="Fill_1" data-name="Fill 1" d="M38.421,42h0c-.213,0-.43-.007-.646-.021a15.112,15.112,0,0,1-8.1-3.372L23.5,33.816l-6.151,4.792a15.112,15.112,0,0,1-8.1,3.372c-.216.014-.433.021-.645.021A8.493,8.493,0,0,1,.02,33.993c-.013-.2-.02-.393-.02-.579v-.047a9.814,9.814,0,0,1,1.327-4.851l4.819-8.24L3.122,17.919a6.807,6.807,0,0,1-2.359-3.5,6.549,6.549,0,0,1,.205-4.183A6.629,6.629,0,0,1,5.3,6.307a9.025,9.025,0,0,1,2.8-.419,12.565,12.565,0,0,1,3.56.545l2.179.66L15.219,4.71A9.265,9.265,0,0,1,20.09.627a9.646,9.646,0,0,1,6.844,0A9.261,9.261,0,0,1,31.8,4.71l1.384,2.383,2.153-.66a12.334,12.334,0,0,1,3.536-.545,9.011,9.011,0,0,1,2.794.419A6.631,6.631,0,0,1,46,10.237a6.392,6.392,0,0,1,.23,4.183,6.9,6.9,0,0,1-2.358,3.5l-3,2.358,4.818,8.24A9.791,9.791,0,0,1,47,33.993,8.491,8.491,0,0,1,38.421,42ZM37.468,22.99l-.128.1-.359.28L27.01,31.1l5.332,4.134a10.355,10.355,0,0,0,5.691,2.484c.124.009.248.014.37.014A4.3,4.3,0,0,0,41.7,36.275a4.246,4.246,0,0,0,1-2.535,5.349,5.349,0,0,0-.743-3.067Zm-27.913,0L5.07,30.672a5.349,5.349,0,0,0-.743,3.067,4.241,4.241,0,0,0,1,2.535A4.3,4.3,0,0,0,8.62,37.733c.122,0,.247,0,.371-.014a10.35,10.35,0,0,0,5.691-2.484L20.012,31.1,9.555,22.99ZM23.511,4.266a5.039,5.039,0,0,0-1.371.19,5.256,5.256,0,0,0-3.178,2.408L11.734,19.211l.769.583-.025.025L23.5,28.39l10.868-8.418.923-.734L28.061,6.864a5.258,5.258,0,0,0-3.179-2.408A5.032,5.032,0,0,0,23.511,4.266ZM8.005,10.159a4.643,4.643,0,0,0-1.424.2,2.482,2.482,0,0,0-1.615,1.445,2.311,2.311,0,0,0-.051,1.444,2.6,2.6,0,0,0,.9,1.319l2.512,1.977L11.606,10.9l-1.23-.356A8.413,8.413,0,0,0,8.005,10.159Zm30.968,0a8.26,8.26,0,0,0-2.352.382l-1.23.356L38.7,16.524l2.486-1.952a2.429,2.429,0,0,0,.872-1.319A2.161,2.161,0,0,0,42,11.809a2.429,2.429,0,0,0-1.589-1.445A4.794,4.794,0,0,0,38.973,10.159Z" transform="translate(0)" fill="#fff"/>
    </g>
  </g>
  <path id="Fill_4" data-name="Fill 4" d="M17.624,7.335a1.037,1.037,0,0,1-1.058,1.047H13.9a.954.954,0,0,1-.99-1.014V7c0-1.927-1.64-3.144-4.133-3.144-2.357,0-4.03,1.488-4.03,4.26V16.5c0,2.771,1.5,4.259,4.132,4.259A5.129,5.129,0,0,0,12.843,19V15.65H9.256a1.073,1.073,0,0,1-1.093-1.081V12.946a1.073,1.073,0,0,1,1.093-1.082h7.275a1.073,1.073,0,0,1,1.093,1.082V23.188a1.066,1.066,0,0,1-1.093,1.047H14.551a1.353,1.353,0,0,1-1.332-1.047l-.068-.406A7.176,7.176,0,0,1,8.2,24.607C3.587,24.607,0,21.6,0,16.9V7.673C0,2.974,3.689,0,8.778,0c5.123,0,8.846,2.637,8.846,6.693Z" transform="translate(64.689 11.677)" fill="#fff"/>
  <path id="Fill_6" data-name="Fill 6" d="M20.14,23.661H17.3a1.547,1.547,0,0,1-1.434-1.014l-1.537-4.7H6.443l-1.5,4.664a1.449,1.449,0,0,1-1.366,1.049H.774a.781.781,0,0,1-.653-.335.717.717,0,0,1-.064-.68L7.81,1.014A1.59,1.59,0,0,1,9.245,0H11.6A1.671,1.671,0,0,1,13.07,1.014l7.788,21.632a.717.717,0,0,1-.064.68A.781.781,0,0,1,20.14,23.661ZM10.337,5.51,7.571,14.3h5.6Z" transform="translate(84.645 12.151)" fill="#fff"/>
  <path id="Fill_8" data-name="Fill 8" d="M3.689,23.661h-2.6A1.076,1.076,0,0,1,0,22.579V1.082A1.076,1.076,0,0,1,1.093,0h8.1a8.613,8.613,0,0,1,6.024,2.074,7.425,7.425,0,0,1,2.207,5.6V9.194a7.426,7.426,0,0,1-2.207,5.6,8.613,8.613,0,0,1-6.024,2.075H4.747v5.712A1.072,1.072,0,0,1,3.689,23.661ZM4.747,3.853v9.194H9.188a3.167,3.167,0,0,0,2.587-1.09,4.911,4.911,0,0,0,.9-3.17V8.079a4.849,4.849,0,0,0-.9-3.153A3.184,3.184,0,0,0,9.188,3.853Z" transform="translate(107.893 12.151)" fill="#fff"/>
  <path id="Fill_10" data-name="Fill 10" d="M1.025,16.157h2.7a.945.945,0,0,1,.99.98c0,1.487,1.606,3.549,4.44,3.549,2.664,0,4.064-1.352,4.064-3.379,0-2.062-1.844-2.738-4.3-2.975C4.645,13.891.478,12.337.478,7.537v-.71C.478,2.906,3.074,0,8.846,0c5.875,0,8.573,3.549,8.573,7.3a1.008,1.008,0,0,1-1.025,1.047H13.731a.945.945,0,0,1-.991-.98A3.548,3.548,0,0,0,8.846,3.853C6.353,3.853,5.158,5.205,5.158,7c0,2.5,2.049,3.008,4.44,3.245,3.962.4,8.3,1.858,8.3,6.523v.811c0,4.191-2.938,6.963-8.744,6.963S0,21.227,0,17.2a1.029,1.029,0,0,1,1.025-1.047" transform="translate(127.171 11.712)" fill="#fff"/>
  <path id="Fill_12" data-name="Fill 12" d="M7.344,23.661a1.067,1.067,0,0,1-1.059-1.082V3.82H1.058A1.059,1.059,0,0,1,0,2.772V1.082A1.066,1.066,0,0,1,1.058,0h15.2a1.066,1.066,0,0,1,1.058,1.082v1.69A1.059,1.059,0,0,1,16.258,3.82H11.032v18.76a1.073,1.073,0,0,1-1.093,1.082Z" transform="translate(146.092 12.151)" fill="#fff"/>
  <path id="Fill_14" data-name="Fill 14" d="M20.139,23.661H17.305a1.548,1.548,0,0,1-1.435-1.014l-1.537-4.7H6.443l-1.5,4.664a1.45,1.45,0,0,1-1.367,1.049H.774a.781.781,0,0,1-.653-.335.717.717,0,0,1-.064-.68L7.809,1.014A1.591,1.591,0,0,1,9.245,0H11.6A1.671,1.671,0,0,1,13.07,1.014l7.788,21.632a.718.718,0,0,1-.065.68A.781.781,0,0,1,20.139,23.661ZM10.337,5.51,7.571,14.3h5.6Z" transform="translate(160.585 12.151)" fill="#fff"/>
  <path id="Fill_16" data-name="Fill 16" d="M17.113,23.661H13.8a1.858,1.858,0,0,1-1.606-.946L8.163,15.954H4.748v6.625a1.072,1.072,0,0,1-1.058,1.082h-2.6A1.076,1.076,0,0,1,0,22.579V1.082A1.076,1.076,0,0,1,1.093,0h8.1a8.972,8.972,0,0,1,6.024,1.91A7.005,7.005,0,0,1,17.42,7.368V8.619a7.324,7.324,0,0,1-1.153,4.17,6.1,6.1,0,0,1-3.356,2.421l4.748,7.537a.637.637,0,0,1-.027.624A.6.6,0,0,1,17.113,23.661ZM4.748,3.853V12.2H9.188a3.317,3.317,0,0,0,2.587-.968,4.42,4.42,0,0,0,.9-3.021V7.774c0-2.639-1.14-3.921-3.484-3.921Z" transform="translate(183.819 12.151)" fill="#fff"/>
  <path id="Fill_18" data-name="Fill 18" d="M1.024,16.157h2.7a.946.946,0,0,1,.991.98c0,1.487,1.605,3.549,4.44,3.549,2.664,0,4.065-1.352,4.065-3.379,0-2.062-1.845-2.738-4.3-2.975C4.645,13.891.478,12.337.478,7.537v-.71C.478,2.906,3.074,0,8.846,0c5.874,0,8.573,3.549,8.573,7.3a1.008,1.008,0,0,1-1.024,1.047H13.731a.946.946,0,0,1-.991-.98A3.547,3.547,0,0,0,8.846,3.853C6.352,3.853,5.158,5.205,5.158,7c0,2.5,2.049,3.008,4.44,3.245,3.962.4,8.3,1.858,8.3,6.523v.811c0,4.191-2.938,6.963-8.744,6.963S0,21.227,0,17.2a1.029,1.029,0,0,1,1.024-1.047" transform="translate(203.102 11.712)" fill="#fff"/>
</svg>
