<svg xmlns="http://www.w3.org/2000/svg" xmlns:xlink="http://www.w3.org/1999/xlink" width="281px" height="84px" viewBox="0 0 281 84" version="1.1">
    <g id="Page-1" stroke="none" stroke-width="1" fill="none" fill-rule="evenodd">
        <g id="hoh" transform="translate(-0.000000, 0.000000)" fill="#FFFFFF" fill-rule="nonzero">
            <path d="M233.884,52.433 L234.037,52.44 L239.109,52.974 L239.239,52.994 C239.491,53.044 239.693,53.164 239.845,53.353 C240.023,53.573 240.095,53.839 240.063,54.151 L239.902,55.685 L240.106,55.476 C241.826,53.771 244.066,53.064 246.826,53.354 C249.583,53.644 251.659,54.731 253.056,56.615 C254.452,58.5 255.039,61.04 254.818,64.235 C254.808,64.607 254.767,65.134 254.695,65.815 C254.624,66.498 254.553,67.036 254.482,67.431 C254.046,70.488 252.94,72.814 251.164,74.408 C249.387,76.003 247.135,76.656 244.407,76.37 C241.651,76.08 239.689,74.926 238.523,72.907 L237.533,82.327 L237.513,82.457 C237.462,82.707 237.342,82.91 237.153,83.062 C236.933,83.24 236.668,83.313 236.355,83.28 L230.857,82.702 L230.705,82.678 C230.462,82.624 230.26,82.505 230.1,82.321 C229.907,82.1 229.828,81.833 229.86,81.521 L232.817,53.389 L232.837,53.259 C232.89,53.009 233.017,52.807 233.217,52.656 C233.452,52.479 233.725,52.408 234.037,52.44 L233.884,52.433 Z M261.998,57.836 C264.188,56.141 266.972,55.471 270.354,55.826 C272.798,56.083 274.814,56.791 276.401,57.949 C277.988,59.107 279.111,60.589 279.769,62.397 C280.426,64.204 280.64,66.201 280.41,68.389 L280.298,69.455 L280.278,69.585 C280.225,69.838 280.098,70.046 279.895,70.21 C279.66,70.4 279.385,70.48 279.073,70.447 L265.563,69.027 L265.535,69.282 L265.515,69.598 C265.463,70.739 265.66,71.695 266.105,72.466 C266.592,73.308 267.36,73.783 268.412,73.894 C269.094,73.966 269.655,73.888 270.095,73.661 C270.535,73.435 270.963,73.128 271.377,72.741 C271.663,72.483 271.887,72.327 272.051,72.273 C272.215,72.218 272.467,72.209 272.808,72.244 L278.392,72.831 L278.54,72.856 C278.73,72.902 278.893,72.995 279.028,73.136 C279.196,73.311 279.268,73.512 279.244,73.74 C279.167,74.478 278.657,75.301 277.714,76.207 C276.771,77.114 275.46,77.837 273.779,78.38 C272.099,78.921 270.165,79.077 267.977,78.847 C264.511,78.483 261.881,77.265 260.087,75.195 C258.294,73.125 257.555,70.311 257.872,66.753 L258.011,65.432 L258.071,65.032 C258.588,61.862 259.896,59.462 261.998,57.836 L261.998,57.836 Z M6.938,47.808 C7.188,47.814 7.408,47.893 7.601,48.043 C7.832,48.223 7.961,48.471 7.989,48.783 L8.822,58.304 L9.01,58.049 C10.483,56.129 12.57,55.051 15.27,54.815 C16.893,54.673 18.391,54.915 19.765,55.54 C21.139,56.166 22.26,57.172 23.127,58.559 C23.994,59.945 24.517,61.664 24.697,63.713 L25.738,75.624 L25.743,75.756 C25.739,76.012 25.653,76.234 25.485,76.421 C25.289,76.639 25.035,76.761 24.722,76.789 L18.915,77.297 L18.775,77.3 C18.545,77.29 18.334,77.204 18.14,77.042 C17.908,76.847 17.78,76.608 17.755,76.323 L16.735,64.667 L16.705,64.384 C16.562,63.271 16.175,62.418 15.54,61.825 C14.853,61.183 13.926,60.912 12.759,61.015 C11.62,61.115 10.754,61.541 10.16,62.295 C9.567,63.05 9.325,64.054 9.434,65.306 L10.454,76.962 L10.459,77.093 C10.455,77.35 10.369,77.571 10.201,77.758 C10.005,77.976 9.751,78.098 9.437,78.126 L3.674,78.63 L3.52,78.635 C3.271,78.629 3.05,78.551 2.858,78.401 C2.627,78.221 2.498,77.973 2.47,77.661 L0.005,49.481 L0,49.351 C0.004,49.094 0.09,48.872 0.258,48.686 C0.454,48.468 0.708,48.345 1.022,48.318 L6.785,47.813 L6.938,47.808 Z M39.179,52.723 C42.652,52.419 45.451,53.028 47.577,54.548 C49.704,56.068 50.984,58.33 51.419,61.332 C51.541,62.067 51.625,62.705 51.673,63.246 C51.72,63.786 51.747,64.429 51.755,65.174 C51.853,68.264 51.015,70.724 49.239,72.557 C47.464,74.391 44.783,75.464 41.196,75.777 C37.61,76.092 34.783,75.5 32.716,74.003 C30.65,72.506 29.396,70.228 28.956,67.169 C28.896,66.801 28.826,66.162 28.746,65.251 C28.666,64.341 28.624,63.699 28.62,63.327 C28.527,60.295 29.396,57.845 31.226,55.979 C33.056,54.112 35.706,53.027 39.179,52.723 L39.179,52.723 Z M81.361,49.033 C83.695,48.828 85.664,49.452 87.268,50.903 C88.872,52.355 89.811,54.646 90.085,57.777 L91.145,69.902 L91.15,70.042 C91.142,70.272 91.063,70.483 90.912,70.675 C90.732,70.906 90.485,71.035 90.172,71.063 L84.92,71.523 L84.767,71.527 C84.517,71.521 84.297,71.443 84.104,71.292 C83.874,71.112 83.744,70.865 83.717,70.552 L82.682,58.726 L82.654,58.451 C82.514,57.285 82.163,56.44 81.598,55.917 C80.989,55.353 80.215,55.113 79.276,55.195 C78.394,55.272 77.702,55.641 77.2,56.301 C76.699,56.962 76.505,57.947 76.62,59.256 L77.654,71.082 L77.658,71.222 C77.651,71.452 77.571,71.663 77.421,71.856 C77.241,72.086 76.994,72.216 76.681,72.243 L71.429,72.703 L71.276,72.708 C71.026,72.702 70.806,72.623 70.613,72.473 C70.383,72.293 70.253,72.045 70.226,71.733 L69.19,59.905 L69.162,59.63 C69.022,58.464 68.662,57.62 68.084,57.098 C67.461,56.536 66.694,56.295 65.784,56.374 C64.901,56.451 64.202,56.821 63.686,57.483 C63.171,58.144 62.969,59.116 63.081,60.397 L64.119,72.265 L64.123,72.405 C64.115,72.635 64.036,72.846 63.886,73.039 C63.706,73.269 63.459,73.399 63.146,73.426 L57.766,73.896 L57.626,73.9 C57.396,73.89 57.184,73.804 56.991,73.642 C56.759,73.447 56.631,73.208 56.605,72.922 L54.85,52.857 L54.845,52.725 C54.849,52.469 54.935,52.247 55.103,52.06 C55.299,51.842 55.539,51.72 55.823,51.696 L60.776,51.263 L60.907,51.257 C61.164,51.259 61.385,51.338 61.571,51.494 C61.787,51.676 61.909,51.924 61.937,52.237 L62.064,53.688 L62.275,53.398 C62.86,52.632 63.611,51.955 64.528,51.365 C65.56,50.701 66.758,50.309 68.125,50.19 C71.255,49.916 73.512,50.952 74.893,53.297 C75.481,52.156 76.358,51.19 77.522,50.4 C78.686,49.61 79.965,49.154 81.36,49.032 L81.361,49.033 Z M209.031,51.945 C211.183,50.462 213.993,49.903 217.459,50.267 C220.926,50.631 223.558,51.763 225.355,53.661 C227.152,55.559 227.978,58.023 227.832,61.053 C227.811,61.798 227.772,62.44 227.715,62.98 C227.659,63.52 227.563,64.156 227.429,64.89 C226.935,67.94 225.643,70.196 223.549,71.657 C221.457,73.117 218.621,73.659 215.04,73.283 C211.46,72.907 208.798,71.787 207.055,69.923 C205.312,68.059 204.516,65.583 204.668,62.497 C204.678,62.125 204.732,61.484 204.828,60.575 L204.855,60.31 C204.939,59.54 205.011,58.99 205.071,58.661 C205.558,55.667 206.878,53.428 209.031,51.945 Z M180.691,38.655 L180.843,38.662 L186.597,39.267 L186.749,39.291 C186.992,39.344 187.194,39.463 187.355,39.648 C187.547,39.869 187.626,40.136 187.594,40.448 L186.594,49.953 L186.829,49.739 C188.641,48.135 190.895,47.475 193.591,47.759 C195.211,47.929 196.635,48.452 197.865,49.328 C199.094,50.204 200.002,51.406 200.588,52.932 C201.175,54.459 201.361,56.246 201.146,58.292 L199.896,70.183 L199.876,70.313 C199.823,70.564 199.696,70.765 199.496,70.917 C199.261,71.093 198.988,71.165 198.676,71.132 L192.879,70.523 L192.741,70.499 C192.517,70.446 192.326,70.321 192.167,70.125 C191.976,69.889 191.895,69.63 191.925,69.345 L193.148,57.709 L193.173,57.425 C193.245,56.305 193.027,55.395 192.518,54.691 C191.966,53.929 191.108,53.487 189.942,53.365 C188.805,53.245 187.874,53.499 187.147,54.127 C186.42,54.754 185.991,55.693 185.86,56.943 L184.637,68.579 L184.617,68.709 C184.564,68.96 184.437,69.162 184.237,69.313 C184.003,69.489 183.729,69.561 183.417,69.528 L177.663,68.924 L177.511,68.899 C177.268,68.846 177.066,68.727 176.906,68.542 C176.713,68.322 176.634,68.054 176.666,67.742 L179.623,39.611 L179.643,39.481 C179.696,39.23 179.823,39.029 180.023,38.877 C180.258,38.701 180.531,38.629 180.843,38.662 L180.691,38.655 Z M42.35,58.984 C41.716,58.294 40.816,57.999 39.649,58.101 C38.482,58.204 37.646,58.65 37.142,59.439 C36.637,60.229 36.407,61.368 36.452,62.855 L36.558,64.567 L36.75,66.271 L36.8,66.586 C37.03,67.926 37.438,68.909 38.025,69.536 C38.658,70.213 39.558,70.499 40.725,70.397 C41.892,70.295 42.728,69.857 43.234,69.081 C43.74,68.305 43.969,67.159 43.923,65.643 C43.926,65.385 43.897,64.897 43.837,64.18 L43.816,63.932 C43.741,63.078 43.677,62.51 43.624,62.228 C43.409,60.755 42.984,59.674 42.35,58.984 L42.35,58.984 Z M243.73,59.017 C242.509,58.889 241.558,59.184 240.88,59.903 C240.2,60.621 239.77,61.575 239.588,62.762 C239.529,63.082 239.468,63.535 239.403,64.119 L239.375,64.377 C239.303,65.059 239.262,65.587 239.252,65.959 C239.192,67.073 239.43,68.024 239.964,68.813 C240.499,69.602 241.364,70.059 242.557,70.184 C243.835,70.319 244.791,70.039 245.425,69.344 C246.058,68.649 246.487,67.638 246.713,66.312 C246.763,66.066 246.817,65.699 246.871,65.212 L246.894,64.995 C246.957,64.398 246.989,63.956 246.991,63.669 C247.046,62.325 246.836,61.247 246.361,60.436 C245.886,59.625 245.009,59.152 243.731,59.017 L243.73,59.017 Z M104.288,47.027 C106.736,46.813 108.849,47.122 110.628,47.957 C112.408,48.79 113.793,50.031 114.783,51.68 C115.773,53.328 116.365,55.248 116.556,57.44 L116.65,58.507 L116.655,58.639 C116.651,58.897 116.565,59.126 116.399,59.325 C116.204,59.557 115.949,59.687 115.637,59.715 L102.103,60.899 L102.125,61.155 L102.165,61.469 C102.332,62.599 102.708,63.499 103.293,64.172 C103.93,64.905 104.776,65.225 105.829,65.132 C106.512,65.073 107.048,64.89 107.437,64.583 C107.827,64.277 108.187,63.894 108.52,63.435 C108.75,63.128 108.942,62.932 109.092,62.847 C109.242,62.762 109.488,62.705 109.83,62.675 L115.423,62.185 L115.573,62.182 C115.769,62.19 115.946,62.25 116.105,62.362 C116.304,62.502 116.413,62.687 116.433,62.914 C116.498,63.654 116.153,64.559 115.401,65.629 C114.649,66.699 113.5,67.659 111.954,68.512 C110.408,69.364 108.539,69.886 106.347,70.078 C102.875,70.382 100.061,69.688 97.906,67.998 C95.75,66.308 94.488,63.688 94.12,60.134 L94.004,58.811 L93.987,58.406 C93.889,55.196 94.717,52.591 96.469,50.593 C98.294,48.512 100.901,47.323 104.288,47.027 L104.288,47.027 Z M136.438,45.62 C139.923,45.62 142.659,46.47 144.645,48.17 C146.63,49.87 147.709,52.234 147.88,55.263 C147.938,56.005 147.966,56.648 147.966,57.191 C147.966,57.734 147.938,58.377 147.88,59.12 C147.709,62.205 146.659,64.584 144.73,66.255 C142.802,67.927 140.038,68.763 136.438,68.763 C132.838,68.763 130.073,67.927 128.145,66.255 C126.216,64.584 125.166,62.205 124.995,59.12 C124.969,58.785 124.955,58.231 124.952,57.457 L124.952,57.191 C124.952,56.277 124.966,55.634 124.995,55.263 C125.166,52.234 126.245,49.87 128.23,48.17 C130.216,46.47 132.952,45.62 136.438,45.62 L136.438,45.62 Z M167.595,36.62 L167.748,36.628 C167.996,36.656 168.209,36.753 168.388,36.92 C168.602,37.12 168.709,37.377 168.709,37.691 L168.709,41.377 L168.702,41.508 C168.676,41.763 168.572,41.977 168.388,42.148 C168.173,42.348 167.909,42.448 167.595,42.448 L164.552,42.448 L164.329,42.453 C163.531,42.484 162.955,42.69 162.602,43.07 C162.216,43.484 162.023,44.12 162.023,44.977 L162.023,46.048 L167.166,46.048 L167.319,46.057 C167.567,46.084 167.78,46.182 167.959,46.348 C168.173,46.548 168.28,46.805 168.28,47.12 L168.28,50.805 L168.274,50.937 C168.248,51.192 168.143,51.405 167.959,51.577 C167.745,51.777 167.48,51.877 167.166,51.877 L162.023,51.877 L162.023,67.263 L162.015,67.403 C161.987,67.631 161.89,67.834 161.723,68.013 C161.523,68.227 161.266,68.334 160.952,68.334 L155.723,68.334 L155.57,68.326 C155.322,68.298 155.109,68.201 154.93,68.034 C154.716,67.834 154.609,67.577 154.609,67.263 L154.609,51.877 L151.395,51.877 L151.242,51.869 C150.994,51.841 150.78,51.744 150.602,51.577 C150.388,51.377 150.28,51.12 150.28,50.805 L150.28,47.12 L150.287,46.989 C150.313,46.733 150.418,46.519 150.602,46.349 C150.816,46.149 151.08,46.049 151.395,46.049 L154.609,46.049 L154.609,44.763 L154.613,44.423 C154.677,41.741 155.503,39.783 157.095,38.548 C158.752,37.263 161.123,36.62 164.209,36.62 L167.595,36.62 L167.595,36.62 Z M216.895,55.637 C215.73,55.515 214.825,55.793 214.179,56.472 C213.533,57.152 213.089,58.225 212.849,59.694 L212.627,61.394 L212.49,63.104 L212.48,63.423 C212.449,64.781 212.662,65.824 213.12,66.553 C213.611,67.337 214.44,67.79 215.605,67.913 C216.77,68.035 217.675,67.764 218.319,67.099 C218.963,66.434 219.407,65.353 219.651,63.856 C219.703,63.603 219.769,63.119 219.846,62.403 L219.873,62.156 C219.963,61.303 220.008,60.734 220.009,60.446 C220.079,58.96 219.869,57.817 219.379,57.019 C218.888,56.22 218.06,55.759 216.895,55.637 L216.895,55.637 Z M269.848,60.643 C268.768,60.529 267.898,60.818 267.235,61.51 C266.574,62.202 266.171,63.23 266.028,64.594 L266.019,64.679 L272.796,65.391 L272.805,65.306 L272.831,65.018 C272.92,63.788 272.724,62.794 272.244,62.037 C271.726,61.221 270.927,60.757 269.848,60.643 Z M136.438,51.02 C135.266,51.02 134.395,51.391 133.823,52.134 C133.252,52.877 132.923,53.991 132.838,55.477 L132.795,57.191 L132.838,58.905 L132.86,59.224 C132.971,60.578 133.293,61.594 133.823,62.27 C134.395,62.998 135.266,63.363 136.438,63.363 C137.609,63.363 138.48,62.998 139.052,62.27 C139.623,61.541 139.952,60.42 140.038,58.905 C140.063,58.648 140.078,58.16 140.08,57.44 L140.08,57.191 C140.08,56.334 140.066,55.763 140.038,55.477 C139.952,53.991 139.623,52.877 139.052,52.134 C138.48,51.391 137.609,51.02 136.438,51.02 L136.438,51.02 Z M107.328,52.762 C106.664,52.06 105.791,51.757 104.71,51.852 C103.628,51.946 102.829,52.396 102.311,53.202 C101.794,54.006 101.595,55.092 101.714,56.458 L101.722,56.544 L108.51,55.95 L108.503,55.864 L108.473,55.577 C108.326,54.352 107.944,53.414 107.328,52.762 L107.328,52.762 Z M149.998,0.197 L197.014,24.349 C197.452,24.573 197.624,25.11 197.401,25.549 L194.368,31.493 C194.144,31.933 193.606,32.106 193.167,31.883 L193.165,31.881 L149.183,9.29 L105.253,31.881 C104.815,32.106 104.277,31.934 104.051,31.495 L104.051,31.493 L101.014,25.55 C100.79,25.112 100.964,24.575 101.401,24.35 L148.365,0.198 C148.877,-0.066 149.485,-0.066 149.997,0.198 L149.998,0.197 Z" id="Shape"/>
        </g>
    </g>
</svg>