<svg xmlns="http://www.w3.org/2000/svg" xmlns:xlink="http://www.w3.org/1999/xlink" width="167px" height="34px" viewBox="0 0 167 34" version="1.1">
    <defs>
        <polygon id="path-1" points="0 0.146625 35.4366686 0.146625 35.4366686 32.13 0 32.13"/>
    </defs>
    <g id="Gapstars" stroke="none" stroke-width="1" fill="none" fill-rule="evenodd">
        <g id="Gapstars-2020---Home-002" transform="translate(-195.000000, -39.000000)">
            <g id="Group-20" transform="translate(195.000000, 39.000000)">
                <g id="Group-3" transform="translate(0.000000, 0.108375)">
                    <mask id="mask-2" fill="white">
                        <use xlink:href="#path-1"/>
                    </mask>
                    <g id="Clip-2"/>
                    <path d="M17.718369,0.146625 C16.839384,0.146625 15.960399,0.306 15.139554,0.624495 C13.555494,1.22298 12.319509,2.265675 11.469339,3.732945 L10.426389,5.54778 L8.784699,5.045685 C7.258524,4.58235 5.520444,4.4472 3.994269,4.949295 C2.468349,5.43201 1.348134,6.435945 0.730014,7.941975 C0.324309,8.96529 0.285549,10.08525 0.575229,11.127435 C0.865164,12.18951 1.502409,13.11618 2.352579,13.79193 L4.631769,15.58764 L1.000314,21.86217 C0.363834,22.979835 0.003264,24.2658 -5.1e-05,25.55661 L-5.1e-05,25.592055 C-5.1e-05,25.738935 0.005304,25.885815 0.014994,26.032695 C0.092514,27.461205 0.633369,28.832085 1.579929,29.913285 C2.989824,31.515705 4.863564,32.249595 6.968844,32.11419 C9.190149,31.97904 11.353824,30.89784 13.073034,29.546595 L17.708679,25.89729 L22.363704,29.546595 C24.082914,30.89784 26.246334,31.97904 28.467639,32.11419 C30.572919,32.249595 32.446659,31.515705 33.856809,29.913285 C34.803114,28.832085 35.343969,27.461205 35.421489,26.032695 C35.517879,24.58455 35.151189,23.11728 34.436169,21.86217 L30.804969,15.58764 L33.065034,13.79193 C33.914694,13.11618 34.532814,12.18951 34.841874,11.127435 C35.131554,10.08525 35.093049,8.96529 34.668219,7.941975 C34.069224,6.435945 32.929629,5.43201 31.403709,4.949295 C29.877789,4.4472 28.139454,4.58235 26.632659,5.045685 L25.010094,5.54778 L23.967144,3.732945 C23.116974,2.265675 21.880989,1.22298 20.296929,0.624495 C19.476084,0.306 18.597099,0.146625 17.718369,0.146625 L17.718369,0.146625 Z M9.402819,15.23982 L9.421944,15.220695 L8.842839,14.776485 L14.289639,5.37387 C14.811114,4.466835 15.680664,3.81021 16.684854,3.53991 C17.360859,3.346875 18.075624,3.346875 18.751629,3.53991 C19.756329,3.81021 20.625369,4.466835 21.147099,5.37387 L26.593899,14.795865 L25.898769,15.35559 L17.708679,21.76578 L9.402819,15.23982 Z M26.671164,8.44407 L27.598599,8.173515 C28.467639,7.903215 29.549349,7.74894 30.457404,8.038365 C31.017384,8.212275 31.423089,8.578965 31.654884,9.138945 C31.789779,9.486255 31.809414,9.87258 31.693389,10.23927 C31.596744,10.625595 31.364949,10.992285 31.036509,11.24346 L29.163024,12.73011 L26.671164,8.44407 Z M4.380594,11.24346 C4.052409,10.992285 3.820359,10.625595 3.704589,10.23927 C3.607944,9.87258 3.607944,9.486255 3.743094,9.138945 C3.974889,8.578965 4.399974,8.212275 4.960209,8.038365 C5.848629,7.74894 6.930339,7.903215 7.818759,8.173515 L8.745939,8.44407 L6.273459,12.749235 L4.380594,11.24346 Z M28.660929,28.870845 C27.115629,28.7742 25.551204,27.924795 24.372594,26.978745 L20.355069,23.831535 L27.868899,17.943075 L28.139454,17.730405 L28.235844,17.653395 L31.616124,23.50335 C32.021829,24.198225 32.234499,25.028505 32.176614,25.839405 C32.137854,26.53428 31.886424,27.22941 31.423089,27.770265 C30.752694,28.51053 29.905839,28.881045 28.940154,28.881045 C28.848099,28.881045 28.755024,28.877475 28.660929,28.870845 L28.660929,28.870845 Z M4.013649,27.770265 C3.550059,27.22941 3.298884,26.53428 3.260124,25.839405 C3.202494,25.028505 3.414909,24.198225 3.820359,23.50335 L7.200639,17.653395 L15.081669,23.831535 L11.063889,26.978745 C9.885789,27.924795 8.320854,28.7742 6.775809,28.870845 C6.681714,28.877475 6.588639,28.881045 6.496329,28.881045 C5.530899,28.881045 4.683789,28.51053 4.013649,27.770265 L4.013649,27.770265 Z" id="Fill-1" fill="#E87A2E" mask="url(#mask-2)"/>
                </g>
                <path d="M62.0317335,14.732982 C62.0317335,15.170562 61.6971735,15.530622 61.2340935,15.530622 L59.2262235,15.530622 C58.7886435,15.530622 58.4800935,15.222072 58.4800935,14.758482 L58.4800935,14.475432 C58.4800935,13.007907 57.2441085,12.081237 55.3652685,12.081237 C53.5889385,12.081237 52.3282185,13.214202 52.3282185,15.325092 L52.3282185,21.708507 C52.3282185,23.818887 53.4604185,24.951597 55.4422785,24.951597 C56.6780085,24.951597 57.7334535,24.436497 58.4285835,23.612847 L58.4285835,21.064887 L55.7253285,21.064887 C55.2622485,21.064887 54.9016785,20.704827 54.9016785,20.241492 L54.9016785,19.006017 C54.9016785,18.542172 55.2622485,18.182367 55.7253285,18.182367 L61.2080835,18.182367 C61.6716735,18.182367 62.0317335,18.542172 62.0317335,19.006017 L62.0317335,26.805192 C62.0317335,27.243027 61.6716735,27.602832 61.2080835,27.602832 L59.7153135,27.602832 C59.2262235,27.602832 58.8146535,27.268017 58.7116335,26.805192 L58.6601235,26.495877 C57.8102085,27.371547 56.3437035,27.885627 54.9276885,27.885627 C51.4530585,27.885627 48.7498035,25.595727 48.7498035,22.017057 L48.7498035,14.990022 C48.7498035,11.412117 51.5300685,9.147207 55.3652685,9.147207 C59.2262235,9.147207 62.0317335,11.155077 62.0317335,14.243892 L62.0317335,14.732982 Z" id="Fill-4" fill="#FFFFFF"/>
                <path d="M64.372302,27.525822 C63.960222,27.525822 63.677172,27.139752 63.831702,26.753682 L69.674517,10.280172 C69.829047,9.842592 70.291872,9.507777 70.755717,9.507777 L72.531537,9.507777 C72.995127,9.507777 73.458207,9.842592 73.638237,10.280172 L79.507062,26.753682 C79.661592,27.139752 79.378542,27.525822 78.966462,27.525822 L76.829817,27.525822 C76.341492,27.525822 75.903912,27.191262 75.749382,26.753682 L74.590917,23.176032 L68.644572,23.176032 L67.512372,26.727672 C67.383342,27.191262 66.945762,27.525822 66.482682,27.525822 L64.372302,27.525822 Z M69.494487,20.395767 L73.715757,20.395767 L71.579367,13.703292 L69.494487,20.395767 Z" id="Fill-6" fill="#FFFFFF"/>
                <path d="M82.1327715,27.525822 C81.6696915,27.525822 81.3091215,27.165252 81.3091215,26.702172 L81.3091215,10.331682 C81.3091215,9.867837 81.6696915,9.507777 82.1327715,9.507777 L88.2331365,9.507777 C92.0683365,9.507777 94.4365215,11.772942 94.4365215,15.350592 L94.4365215,16.508802 C94.4365215,20.086707 92.0683365,22.352127 88.2331365,22.352127 L84.8867715,22.352127 L84.8867715,26.702172 C84.8867715,27.165252 84.5269665,27.525822 84.0891315,27.525822 L82.1327715,27.525822 Z M84.8867715,19.443597 L88.2331365,19.443597 C89.9319465,19.443597 90.8586165,18.310887 90.8586165,16.199742 L90.8586165,15.659907 C90.8586165,13.548762 89.9319465,12.442062 88.2331365,12.442062 L84.8867715,12.442062 L84.8867715,19.443597 Z" id="Fill-8" fill="#FFFFFF"/>
                <path d="M96.6088665,21.4770435 L98.6422365,21.4770435 C99.0795615,21.4770435 99.3886215,21.7855935 99.3886215,22.2231735 C99.3886215,23.3558835 100.598597,24.9256635 102.734987,24.9256635 C104.742347,24.9256635 105.797792,23.8964835 105.797792,22.3522035 C105.797792,20.7819135 104.408042,20.2673235 102.554192,20.0865285 C99.3373665,19.7519685 96.1972965,18.5685135 96.1972965,14.9130885 L96.1972965,14.3722335 C96.1972965,11.3866935 98.1531465,9.1735485 102.503192,9.1735485 C106.930757,9.1735485 108.964127,11.8760385 108.964127,14.7330585 C108.964127,15.1706385 108.655577,15.5306985 108.191987,15.5306985 L106.184627,15.5306985 C105.747047,15.5306985 105.437987,15.2221485 105.437987,14.7845685 C105.437987,13.6263585 104.639582,12.1073235 102.503192,12.1073235 C100.624352,12.1073235 99.7236915,13.1372685 99.7236915,14.5015185 C99.7236915,16.4058585 101.267972,16.7919285 103.069802,16.9727235 C106.055342,17.2810185 109.324697,18.3877185 109.324697,21.9401235 L109.324697,22.5577335 C109.324697,25.7493135 107.110532,27.8604585 102.734987,27.8604585 C98.3591865,27.8604585 95.8367265,25.3379985 95.8367265,22.2746835 C95.8367265,21.8371035 96.1712865,21.4770435 96.6088665,21.4770435" id="Fill-10" fill="#FFFFFF"/>
                <path d="M115.63003,27.525822 C115.19245,27.525822 114.831626,27.165252 114.831626,26.702172 L114.831626,12.416562 L110.893406,12.416562 C110.455825,12.416562 110.095765,12.055992 110.095765,11.618412 L110.095765,10.331682 C110.095765,9.867837 110.455825,9.507777 110.893406,9.507777 L122.348005,9.507777 C122.785585,9.507777 123.145646,9.867837 123.145646,10.331682 L123.145646,11.618412 C123.145646,12.055992 122.785585,12.416562 122.348005,12.416562 L118.40953,12.416562 L118.40953,26.702172 C118.40953,27.165252 118.04947,27.525822 117.585881,27.525822 L115.63003,27.525822 Z" id="Fill-12" fill="#FFFFFF"/>
                <path d="M121.601366,27.525822 C121.189541,27.525822 120.906236,27.139752 121.061021,26.753682 L126.903581,10.280172 C127.058111,9.842592 127.521191,9.507777 127.984781,9.507777 L129.760601,9.507777 C130.224191,9.507777 130.687525,9.842592 130.8673,10.280172 L136.73638,26.753682 C136.890656,27.139752 136.607861,27.525822 136.195526,27.525822 L134.059136,27.525822 C133.570556,27.525822 133.13323,27.191262 132.978191,26.753682 L131.819981,23.176032 L125.873636,23.176032 L124.741691,26.727672 C124.612661,27.191262 124.175081,27.525822 123.711746,27.525822 L121.601366,27.525822 Z M126.723296,20.395767 L130.945076,20.395767 L128.808686,13.703292 L126.723296,20.395767 Z" id="Fill-14" fill="#FFFFFF"/>
                <path d="M139.350513,27.525822 C138.887688,27.525822 138.527118,27.165252 138.527118,26.702172 L138.527118,10.331682 C138.527118,9.867837 138.887688,9.507777 139.350513,9.507777 L145.451133,9.507777 C149.286078,9.507777 151.654263,11.515392 151.654263,15.119052 L151.654263,16.071222 C151.654263,18.542172 150.470553,20.395767 148.256643,21.090897 L151.834803,26.830692 C151.989078,27.139752 151.783548,27.525822 151.422978,27.525822 L148.926528,27.525822 C148.437438,27.525822 147.947838,27.242772 147.716808,26.805192 L144.678993,21.656997 L142.104768,21.656997 L142.104768,26.702172 C142.104768,27.165252 141.744963,27.525822 141.307128,27.525822 L139.350513,27.525822 Z M142.104768,18.799977 L145.451133,18.799977 C147.149688,18.799977 148.076613,17.847042 148.076613,15.762672 L148.076613,15.427602 C148.076613,13.342722 147.149688,12.442062 145.451133,12.442062 L142.104768,12.442062 L142.104768,18.799977 Z" id="Fill-16" fill="#FFFFFF"/>
                <path d="M153.831223,21.4770435 L155.864849,21.4770435 C156.302174,21.4770435 156.611489,21.7855935 156.611489,22.2231735 C156.611489,23.3558835 157.821209,24.9256635 159.957598,24.9256635 C161.964959,24.9256635 163.020914,23.8964835 163.020914,22.3522035 C163.020914,20.7819135 161.630654,20.2673235 159.777059,20.0865285 C156.559978,19.7519685 153.419908,18.5685135 153.419908,14.9130885 L153.419908,14.3722335 C153.419908,11.3866935 155.375759,9.1735485 159.726058,9.1735485 C164.153113,9.1735485 166.186484,11.8760385 166.186484,14.7330585 C166.186484,15.1706385 165.877934,15.5306985 165.414599,15.5306985 L163.407239,15.5306985 C162.969659,15.5306985 162.660089,15.2221485 162.660089,14.7845685 C162.660089,13.6263585 161.861939,12.1073235 159.726058,12.1073235 C157.846453,12.1073235 156.946303,13.1372685 156.946303,14.5015185 C156.946303,16.4058585 158.490329,16.7919285 160.292414,16.9727235 C163.277954,17.2810185 166.547054,18.3877185 166.547054,21.9401235 L166.547054,22.5577335 C166.547054,25.7493135 164.333144,27.8604585 159.957598,27.8604585 C155.581544,27.8604585 153.059338,25.3379985 153.059338,22.2746835 C153.059338,21.8371035 153.393643,21.4770435 153.831223,21.4770435" id="Fill-18" fill="#FFFFFF"/>
            </g>
        </g>
    </g>
</svg>